<svg width="37" height="39" viewBox="0 0 37 39" fill="none" xmlns="http://www.w3.org/2000/svg">
<path d="M33.9167 27.625V21.125C33.9167 12.1504 27.0144 4.875 18.5 4.875C9.98561 4.875 3.08333 12.1504 3.08333 21.125V27.625M11.5625 34.125C9.4339 34.125 7.70833 32.3062 7.70833 30.0625V25.1875C7.70833 22.9438 9.4339 21.125 11.5625 21.125C13.6911 21.125 15.4167 22.9438 15.4167 25.1875V30.0625C15.4167 32.3062 13.6911 34.125 11.5625 34.125ZM25.4375 34.125C23.3089 34.125 21.5833 32.3062 21.5833 30.0625V25.1875C21.5833 22.9438 23.3089 21.125 25.4375 21.125C27.5661 21.125 29.2917 22.9438 29.2917 25.1875V30.0625C29.2917 32.3062 27.5661 34.125 25.4375 34.125Z" stroke="white" stroke-width="3" stroke-linecap="round" stroke-linejoin="round"/>
</svg>
