<svg width="36" height="41" viewBox="0 0 36 41" fill="none" xmlns="http://www.w3.org/2000/svg">
<path d="M20.8235 18.5779H9.52941M13.2941 25.9373H9.52941M24.5882 11.2184H9.52941M32.1176 16.738V10.8505C32.1176 7.75923 32.1176 6.2136 31.5022 5.0329C30.9608 3.99433 30.0969 3.14994 29.0343 2.62076C27.8263 2.01917 26.245 2.01917 23.0824 2.01917H11.0353C7.87264 2.01917 6.29132 2.01917 5.08335 2.62076C4.02079 3.14994 3.1569 3.99433 2.61549 5.0329C2 6.2136 2 7.75923 2 10.8505V29.985C2 33.0762 2 34.6218 2.61549 35.8025C3.1569 36.8411 4.02079 37.6855 5.08335 38.2147C6.29132 38.8163 7.87264 38.8163 11.0353 38.8163H18M28.3529 36.9764C28.3529 36.9764 34 34.3456 34 30.3994V25.7954L29.8822 24.3572C28.8928 24.0108 27.8108 24.0108 26.8215 24.3572L22.7059 25.7954V30.3994C22.7059 34.3456 28.3529 36.9764 28.3529 36.9764Z" stroke="white" stroke-width="3.33333" stroke-linecap="round" stroke-linejoin="round"/>
</svg>
