<svg width="37" height="38" viewBox="0 0 37 38" fill="none" xmlns="http://www.w3.org/2000/svg">
<path d="M9.25 9.49996L12.3333 6.33329M12.3333 6.33329L9.25 3.16663M12.3333 6.33329H9.25C5.84424 6.33329 3.08333 9.16882 3.08333 12.6666M27.75 28.5L24.6667 31.6666M24.6667 31.6666L27.75 34.8333M24.6667 31.6666H27.75C31.1558 31.6666 33.9167 28.8311 33.9167 25.3333M15.7081 10.2916C16.7349 6.19421 20.3565 3.16663 24.6667 3.16663C29.7753 3.16663 33.9167 7.41992 33.9167 12.6666C33.9167 17.0932 30.9688 20.8127 26.9793 21.8673M21.5833 25.3333C21.5833 30.58 17.442 34.8333 12.3333 34.8333C7.22469 34.8333 3.08333 30.58 3.08333 25.3333C3.08333 20.0866 7.22469 15.8333 12.3333 15.8333C17.442 15.8333 21.5833 20.0866 21.5833 25.3333Z" stroke="white" stroke-width="3" stroke-linecap="round" stroke-linejoin="round"/>
</svg>
