<svg width="37" height="41" viewBox="0 0 37 41" fill="none" xmlns="http://www.w3.org/2000/svg">
<path d="M20.0417 11.9583L18.3219 8.1469C17.8269 7.04996 17.5794 6.50146 17.2102 6.10074C16.8837 5.74637 16.4902 5.47687 16.0581 5.31174C15.5695 5.125 15.0161 5.125 13.9094 5.125H8.01666C6.28983 5.125 5.42642 5.125 4.76686 5.49739C4.18669 5.82496 3.715 6.34765 3.41939 6.99053C3.08333 7.7214 3.08333 8.67815 3.08333 10.5917V11.9583M3.08333 11.9583H26.5167C29.1069 11.9583 30.402 11.9583 31.3914 12.5169C32.2616 13.0083 32.9692 13.7923 33.4126 14.7566C33.9167 15.8529 33.9167 17.2881 33.9167 20.1583V27.675C33.9167 30.5453 33.9167 31.9804 33.4126 33.0767C32.9692 34.041 32.2616 34.8251 31.3914 35.3164C30.402 35.875 29.1069 35.875 26.5167 35.875H10.4833C7.89309 35.875 6.59796 35.875 5.60862 35.3164C4.73837 34.8251 4.03084 34.041 3.58742 33.0767C3.08333 31.9804 3.08333 30.5453 3.08333 27.675V11.9583ZM13.875 23.9167L18.5 29.0417M18.5 29.0417L23.125 23.9167M18.5 29.0417V18.7917" stroke="white" stroke-width="3" stroke-linecap="round" stroke-linejoin="round"/>
</svg>
