<svg width="36" height="37" viewBox="0 0 36 37" fill="none" xmlns="http://www.w3.org/2000/svg">
<path d="M11.8098 22.0827C12.5992 25.1052 15.3834 27.3385 18.6969 27.3385C22.0104 27.3385 24.7945 25.1052 25.5839 22.0827M16.2537 3.20819L4.19625 12.4498C3.39026 13.0676 2.98726 13.3765 2.69694 13.7633C2.43976 14.1059 2.24818 14.492 2.1316 14.9024C2 15.3657 2 15.8688 2 16.8751V29.5501C2 31.5125 2 32.4936 2.38753 33.2431C2.72841 33.9024 3.27235 34.4385 3.94137 34.7744C4.70194 35.1563 5.6976 35.1563 7.68889 35.1563H28.3111C30.3024 35.1563 31.2981 35.1563 32.0586 34.7744C32.7277 34.4385 33.2716 33.9024 33.6125 33.2431C34 32.4936 34 31.5125 34 29.5501V16.8751C34 15.8688 34 15.3657 33.8684 14.9024C33.7518 14.492 33.5602 14.1059 33.3031 13.7633C33.0127 13.3765 32.6097 13.0676 31.8038 12.4498L19.7463 3.20819C19.1217 2.72948 18.8095 2.49012 18.4646 2.39811C18.1604 2.31692 17.8396 2.31692 17.5354 2.39811C17.1905 2.49012 16.8783 2.72948 16.2537 3.20819Z" stroke="white" stroke-width="3.33333" stroke-linecap="round" stroke-linejoin="round"/>
</svg>
