<svg width="128" height="22" viewBox="0 0 128 22" fill="none" xmlns="http://www.w3.org/2000/svg">
<path d="M7.74609 1.16602C8.72266 1.22461 9.54297 1.27344 10.207 1.3125C10.8906 1.33203 11.457 1.35156 11.9062 1.37109C12.4141 1.39062 12.8438 1.39062 13.1953 1.37109C13.5469 1.35156 14.0254 1.30273 14.6309 1.22461C15.1387 1.16602 15.8125 1.07812 16.6523 0.960938C17.5117 0.824219 18.5762 0.648438 19.8457 0.433594C19.3965 0.882812 19.0449 1.29297 18.791 1.66406C18.5566 2.01562 18.3711 2.31836 18.2344 2.57227C18.0781 2.88477 17.9707 3.14844 17.9121 3.36328C17.873 3.55859 17.9121 4.04688 18.0293 4.82812C18.1465 5.60938 18.3125 6.53711 18.5273 7.61133C18.7422 8.66602 18.9766 9.79883 19.2305 11.0098C19.4844 12.2012 19.7383 13.3242 19.9922 14.3789C20.2461 15.4141 20.4707 16.3027 20.666 17.0449C20.8809 17.7676 21.0371 18.1973 21.1348 18.334C21.4277 18.7441 21.6133 19.0176 21.6914 19.1543C21.7695 19.2715 21.9062 19.3789 22.1016 19.4766C22.1797 19.5156 22.3066 19.5742 22.4824 19.6523C22.6387 19.7305 22.8438 19.8281 23.0977 19.9453C23.3711 20.0625 23.7129 20.1992 24.123 20.3555C23.3613 20.3945 22.707 20.4238 22.1602 20.4434C21.6133 20.4434 21.1641 20.4531 20.8125 20.4727C20.4023 20.4922 20.0508 20.5117 19.7578 20.5312C19.4648 20.5312 19.1133 20.5508 18.7031 20.5898C18.3516 20.6289 17.8926 20.668 17.3262 20.707C16.7793 20.7461 16.1348 20.7852 15.3926 20.8242C15.7832 20.5508 16.0957 20.3066 16.3301 20.0918C16.584 19.8574 16.7793 19.6621 16.916 19.5059C17.0723 19.3105 17.1797 19.1348 17.2383 18.9785C17.2773 18.8027 17.3066 18.5391 17.3262 18.1875C17.3457 17.875 17.3457 17.4648 17.3262 16.957C17.3066 16.4297 17.2578 15.7461 17.1797 14.9062L9.47461 15.6973C9.2793 16.0293 9.13281 16.3223 9.03516 16.5762C8.9375 16.8105 8.86914 17.0156 8.83008 17.1914C8.77148 17.4062 8.75195 17.582 8.77148 17.7188C8.81055 17.875 8.87891 18.0605 8.97656 18.2754C9.07422 18.4707 9.21094 18.7051 9.38672 18.9785C9.58203 19.2324 9.86523 19.5352 10.2363 19.8867C9.74805 19.8672 9.25 19.8574 8.74219 19.8574C8.23438 19.8574 7.76562 19.8672 7.33594 19.8867C6.82812 19.9062 6.33008 19.9258 5.8418 19.9453C5.35352 19.9648 4.79688 19.9941 4.17188 20.0332C3.64453 20.0723 3.0293 20.1211 2.32617 20.1797C1.60352 20.2188 0.832031 20.2773 0.0117188 20.3555C0.519531 20.1211 0.949219 19.8867 1.30078 19.6523C1.65234 19.3984 1.94531 19.1641 2.17969 18.9492C2.45312 18.7148 2.6875 18.4902 2.88281 18.2754C3.01953 18.0801 3.29297 17.6309 3.70312 16.9277C4.11328 16.2051 4.57227 15.3555 5.08008 14.3789C5.60742 13.4023 6.1543 12.3574 6.7207 11.2441C7.30664 10.1309 7.83398 9.08594 8.30273 8.10938C8.77148 7.11328 9.15234 6.25391 9.44531 5.53125C9.73828 4.80859 9.88477 4.33984 9.88477 4.125C9.8457 3.87109 9.74805 3.58789 9.5918 3.27539C9.45508 3.00195 9.24023 2.68945 8.94727 2.33789C8.67383 1.98633 8.27344 1.5957 7.74609 1.16602ZM16.8281 12.7383C16.7109 12.0547 16.6035 11.4688 16.5059 10.9805C16.4082 10.4727 16.3301 10.0527 16.2715 9.7207C16.1934 9.33008 16.1348 8.98828 16.0957 8.69531C16.0371 8.42188 15.9688 8.07031 15.8906 7.64062C15.8125 7.26953 15.7148 6.81055 15.5977 6.26367C15.5 5.69727 15.373 5.02344 15.2168 4.24219C14.1035 6.46875 13.2344 8.19727 12.6094 9.42773C12.0039 10.6387 11.5645 11.5273 11.291 12.0938C10.959 12.7578 10.7734 13.1484 10.7344 13.2656L16.8281 12.7383ZM22.5996 7.11328C23.0488 7.07422 23.4297 7.03516 23.7422 6.99609C24.0742 6.95703 24.3477 6.91797 24.5625 6.87891C24.8164 6.83984 25.0312 6.80078 25.207 6.76172C25.3828 6.74219 25.5781 6.70312 25.793 6.64453C25.9883 6.60547 26.2031 6.55664 26.4375 6.49805C26.6914 6.41992 26.9648 6.33203 27.2578 6.23438L27.082 9.95508C27.5117 9.27148 28.0098 8.75391 28.5762 8.40234C29.1426 8.03125 29.6797 7.75781 30.1875 7.58203C30.793 7.36719 31.3984 7.24023 32.0039 7.20117C32.6289 7.2207 33.2051 7.31836 33.7324 7.49414C34.1816 7.65039 34.6309 7.89453 35.0801 8.22656C35.5488 8.55859 35.9102 9.04688 36.1641 9.69141C36.8281 9.00781 37.4824 8.48047 38.127 8.10938C38.791 7.71875 39.377 7.42578 39.8848 7.23047C40.4902 7.01562 41.0566 6.88867 41.584 6.84961C42.2871 6.83008 42.9316 6.94727 43.5176 7.20117C44.123 7.45508 44.6504 7.77734 45.0996 8.16797C45.5488 8.53906 45.9102 8.93945 46.1836 9.36914C46.457 9.7793 46.6133 10.1406 46.6523 10.4531C46.7109 10.8828 46.6816 11.4395 46.5645 12.123C46.4473 12.7871 46.3105 13.4707 46.1543 14.1738C45.998 14.8574 45.8516 15.4922 45.7148 16.0781C45.5977 16.6445 45.5488 17.0449 45.5684 17.2793C45.627 17.4746 45.7637 17.709 45.9785 17.9824C46.1738 18.2168 46.457 18.5098 46.8281 18.8613C47.2188 19.1934 47.7754 19.584 48.498 20.0332C47.873 20.0137 47.3164 19.9941 46.8281 19.9746C46.3594 19.9551 45.959 19.9258 45.627 19.8867C45.2363 19.8477 44.8945 19.8184 44.6016 19.7988C44.3672 19.7988 44.084 19.7793 43.752 19.7402C43.4785 19.7207 43.1172 19.6914 42.668 19.6523C42.2383 19.6133 41.7402 19.5742 41.1738 19.5352C41.3887 19.4766 41.5645 19.3691 41.7012 19.2129C41.8379 19.0371 41.9551 18.8711 42.0527 18.7148C42.1504 18.5195 42.2285 18.3047 42.2871 18.0703C42.3262 17.875 42.3652 17.5625 42.4043 17.1328C42.4434 16.7031 42.4727 16.2148 42.4922 15.668C42.5312 15.1211 42.5508 14.5449 42.5508 13.9395C42.5703 13.334 42.5703 12.7578 42.5508 12.2109C42.5312 11.6641 42.4922 11.166 42.4336 10.7168C42.375 10.2676 42.2969 9.92578 42.1992 9.69141C42.1211 9.51562 41.9844 9.37891 41.7891 9.28125C41.5938 9.16406 41.3691 9.0957 41.1152 9.07617C40.8613 9.03711 40.6074 9.04688 40.3535 9.10547C40.0996 9.14453 39.875 9.22266 39.6797 9.33984C39.5039 9.47656 39.2695 9.66211 38.9766 9.89648C38.7227 10.1113 38.3906 10.4043 37.9805 10.7754C37.5703 11.1465 37.0527 11.6152 36.4277 12.1816C36.3691 13.4121 36.3203 14.4082 36.2812 15.1699C36.2617 15.9121 36.2422 16.4785 36.2227 16.8691C36.2031 17.3379 36.1934 17.6602 36.1934 17.8359C36.1738 17.9922 36.1836 18.1387 36.2227 18.2754C36.2617 18.5684 36.3789 18.8418 36.5742 19.0957C36.3398 19.0371 36.0859 18.998 35.8125 18.9785C35.5586 18.959 35.3242 18.9395 35.1094 18.9199C34.8555 18.9004 34.6016 18.8906 34.3477 18.8906C34.1328 18.8906 33.8984 18.9004 33.6445 18.9199C33.4297 18.9395 33.166 18.9688 32.8535 19.0078C32.541 19.0273 32.1992 19.0566 31.8281 19.0957C31.9844 18.998 32.1113 18.8809 32.209 18.7441C32.3066 18.6074 32.3848 18.4805 32.4434 18.3633C32.5215 18.2266 32.5801 18.0996 32.6191 17.9824C32.6387 17.8652 32.6777 17.582 32.7363 17.1328C32.7949 16.6641 32.834 16.1172 32.8535 15.4922C32.873 14.8672 32.873 14.2129 32.8535 13.5293C32.834 12.8262 32.7656 12.1914 32.6484 11.625C32.5312 11.0391 32.3457 10.5605 32.0918 10.1895C31.8574 9.81836 31.5449 9.65234 31.1543 9.69141C30.6855 9.73047 30.207 9.84766 29.7188 10.043C29.3086 10.1992 28.8691 10.4336 28.4004 10.7461C27.9316 11.0586 27.4922 11.4785 27.082 12.0059C27.0039 13.4707 26.9551 14.6328 26.9355 15.4922C26.9355 16.3516 26.9453 17.0059 26.9648 17.4551C26.9844 17.9824 27.0039 18.3438 27.0234 18.5391C27.043 18.6758 27.0918 18.8125 27.1699 18.9492C27.2285 19.0664 27.2969 19.2031 27.375 19.3594C27.4727 19.5156 27.5801 19.6621 27.6973 19.7988L23.0391 19.5645C23.1953 19.4863 23.332 19.3887 23.4492 19.2715C23.5664 19.1348 23.6641 18.998 23.7422 18.8613C23.8203 18.7051 23.8984 18.5488 23.9766 18.3926C24.0352 18.2559 24.084 17.9336 24.123 17.4258C24.1816 16.918 24.2305 16.3223 24.2695 15.6387C24.3086 14.9355 24.3379 14.2031 24.3574 13.4414C24.3965 12.6602 24.416 11.9375 24.416 11.2734C24.4355 10.5898 24.4453 10.0137 24.4453 9.54492C24.4453 9.05664 24.4355 8.76367 24.416 8.66602C24.3574 8.4707 24.25 8.26562 24.0938 8.05078C23.957 7.89453 23.7715 7.72852 23.5371 7.55273C23.3027 7.35742 22.9902 7.21094 22.5996 7.11328ZM50.8418 9.13477C50.9395 9.01758 50.998 8.80273 51.0176 8.49023C51.0566 8.1582 51.1348 7.78711 51.252 7.37695C51.3887 6.9668 51.6133 6.53711 51.9258 6.08789C52.2383 5.63867 52.7461 5.21875 53.4492 4.82812C54.1328 4.4375 54.7969 4.20312 55.4414 4.125C56.0859 4.04688 56.7012 4.07617 57.2871 4.21289C57.873 4.34961 58.4199 4.56445 58.9277 4.85742C59.4551 5.15039 59.9336 5.47266 60.3633 5.82422C60.6562 6.05859 60.8906 6.40039 61.0664 6.84961C61.2422 7.2793 61.3789 7.76758 61.4766 8.31445C61.5742 8.86133 61.6426 9.4375 61.6816 10.043C61.7402 10.6289 61.7793 11.2051 61.7988 11.7715C61.8184 12.3184 61.8281 12.8262 61.8281 13.2949C61.8477 13.7441 61.8867 14.1152 61.9453 14.4082C62.0234 14.8379 62.1602 15.209 62.3555 15.5215C62.5508 15.8145 62.7656 16.0684 63 16.2832C63.2344 16.4785 63.4688 16.6348 63.7031 16.752C63.9375 16.8691 64.1426 16.957 64.3184 17.0156C64.4355 17.0742 64.543 17.1133 64.6406 17.1328C64.8359 17.2109 64.9727 17.2109 65.0508 17.1328C64.9336 17.4062 64.8262 17.6406 64.7285 17.8359C64.6309 18.0312 64.5527 18.1973 64.4941 18.334C64.416 18.4902 64.3477 18.6172 64.2891 18.7148C64.2305 18.832 64.1621 18.9395 64.084 19.0371C64.0254 19.1348 63.9473 19.2422 63.8496 19.3594C63.752 19.4766 63.6543 19.6035 63.5566 19.7402C63.3027 19.6426 63.0586 19.5254 62.8242 19.3887C62.6094 19.252 62.4141 19.125 62.2383 19.0078C62.0234 18.8711 61.8281 18.7344 61.6523 18.5977C61.4766 18.4609 61.3105 18.3047 61.1543 18.1289C61.0176 17.9727 60.8711 17.8066 60.7148 17.6309C60.5781 17.4551 60.4609 17.2598 60.3633 17.0449C60.2461 17.2988 59.9629 17.6602 59.5137 18.1289C59.084 18.5977 58.5176 19.0273 57.8145 19.418C57.1113 19.7891 56.291 20.0527 55.3535 20.209C54.4355 20.3652 53.4199 20.2578 52.3066 19.8867C51.8184 19.7305 51.3594 19.5059 50.9297 19.2129C50.5 18.9004 50.1289 18.5293 49.8164 18.0996C49.5234 17.6699 49.3086 17.1816 49.1719 16.6348C49.0547 16.0684 49.0645 15.4434 49.2012 14.7598C49.3379 14.0762 49.582 13.5 49.9336 13.0312C50.2852 12.5625 50.7051 12.1816 51.1934 11.8887C51.6816 11.5957 52.2285 11.3711 52.834 11.2148C53.4395 11.0586 54.0645 10.9512 54.709 10.8926C55.2168 10.873 55.7246 10.9023 56.2324 10.9805C56.6621 11.0586 57.1113 11.2051 57.5801 11.4199C58.0488 11.6152 58.4492 11.918 58.7812 12.3281C58.7617 11.293 58.7227 10.4727 58.6641 9.86719C58.625 9.24219 58.5859 8.76367 58.5469 8.43164C58.4688 8.04102 58.4004 7.76758 58.3418 7.61133C58.2441 7.47461 58.1367 7.31836 58.0195 7.14258C57.9219 6.9668 57.7949 6.81055 57.6387 6.67383C57.4824 6.51758 57.2871 6.39062 57.0527 6.29297C56.8184 6.19531 56.5449 6.15625 56.2324 6.17578C55.9004 6.19531 55.6367 6.2832 55.4414 6.43945C55.2461 6.5957 55.0898 6.78125 54.9727 6.99609C54.875 7.19141 54.8164 7.40625 54.7969 7.64062C54.7773 7.875 54.7871 8.08008 54.8262 8.25586C54.8652 8.37305 54.9238 8.5 55.002 8.63672C55.0801 8.75391 55.1875 8.88086 55.3242 9.01758C55.4609 9.1543 55.6465 9.27148 55.8809 9.36914C55.4316 9.42773 55.0312 9.47656 54.6797 9.51562C54.3281 9.53516 54.0254 9.56445 53.7715 9.60352C53.4785 9.64258 53.2246 9.67188 53.0098 9.69141C52.7949 9.71094 52.541 9.75 52.248 9.80859C51.9941 9.84766 51.6816 9.89648 51.3105 9.95508C50.9395 10.0137 50.5098 10.0918 50.0215 10.1895C50.1387 10.0527 50.2461 9.92578 50.3438 9.80859C50.4414 9.67188 50.5293 9.55469 50.6074 9.45703C50.6855 9.33984 50.7637 9.23242 50.8418 9.13477ZM55.2363 12.6211C54.8848 12.6406 54.5332 12.7285 54.1816 12.8848C53.8301 13.0215 53.5176 13.2266 53.2441 13.5C52.9707 13.7539 52.7363 14.0566 52.541 14.4082C52.3652 14.7402 52.2773 15.1113 52.2773 15.5215C52.2773 15.9316 52.375 16.293 52.5703 16.6055C52.7852 16.8984 53.0586 17.1426 53.3906 17.3379C53.7422 17.5332 54.1133 17.6504 54.5039 17.6895C54.9141 17.7285 55.3145 17.6895 55.7051 17.5723C56.0762 17.4355 56.4277 17.2207 56.7598 16.9277C57.0918 16.6152 57.375 16.2832 57.6094 15.9316C57.8438 15.5605 58.0098 15.1992 58.1074 14.8477C58.2051 14.4766 58.2148 14.1738 58.1367 13.9395C57.9805 13.4316 57.6289 13.0801 57.082 12.8848C56.5352 12.6699 55.9199 12.582 55.2363 12.6211ZM64.4648 4.03711C65.3633 4.11523 66.1543 4.17383 66.8379 4.21289C67.541 4.23242 68.127 4.26172 68.5957 4.30078C69.1426 4.33984 69.6211 4.36914 70.0312 4.38867C70.4609 4.4082 71.0078 4.4082 71.6719 4.38867C72.2383 4.38867 72.9609 4.37891 73.8398 4.35938C74.7383 4.32031 75.832 4.26172 77.1211 4.18359L76.8867 8.25586C76.3203 8.82227 75.8125 9.34961 75.3633 9.83789C74.9336 10.3262 74.5527 10.7461 74.2207 11.0977C73.8496 11.5078 73.5176 11.8789 73.2246 12.2109C72.9316 12.5625 72.5996 12.9824 72.2285 13.4707C71.8965 13.9004 71.4961 14.4277 71.0273 15.0527C70.5586 15.6582 70.0215 16.3711 69.416 17.1914C70.4902 17.1328 71.3691 17.0742 72.0527 17.0156C72.7363 16.9375 73.2734 16.8691 73.6641 16.8105C74.1328 16.7324 74.4746 16.6738 74.6895 16.6348C74.8848 16.5566 75.1094 16.3906 75.3633 16.1367C75.5781 15.9219 75.8418 15.5996 76.1543 15.1699C76.4668 14.7402 76.8184 14.1543 77.209 13.4121C77.209 14.0176 77.209 14.5352 77.209 14.9648C77.2285 15.375 77.2383 15.7168 77.2383 15.9902V16.7812V17.4551C77.2383 17.6699 77.2383 17.9336 77.2383 18.2461C77.2578 18.5586 77.2773 18.9102 77.2969 19.3008C76.5352 19.2031 75.8418 19.1348 75.2168 19.0957C74.5918 19.0371 74.0547 18.998 73.6055 18.9785C73.0781 18.959 72.5996 18.959 72.1699 18.9785C71.7402 19.0176 71.2031 19.0566 70.5586 19.0957C70.0117 19.1348 69.3379 19.1738 68.5371 19.2129C67.7363 19.252 66.7891 19.3008 65.6953 19.3594L65.0508 16.2539C65.4023 16.0977 65.8223 15.7949 66.3105 15.3457C66.7988 14.8965 67.2676 14.4375 67.7168 13.9688C68.2246 13.4219 68.7617 12.8262 69.3281 12.1816C69.875 11.5371 70.4121 10.8926 70.9395 10.248C71.3887 9.70117 71.8574 9.13477 72.3457 8.54883C72.8535 7.96289 73.293 7.44531 73.6641 6.99609C72.6094 7.03516 71.7402 7.11328 71.0566 7.23047C70.373 7.32812 69.8359 7.42578 69.4453 7.52344C68.9766 7.64062 68.625 7.77734 68.3906 7.93359C68.1758 8.10938 67.9121 8.37305 67.5996 8.72461C67.3262 9.01758 66.9941 9.41797 66.6035 9.92578C66.2129 10.4141 65.7637 11.0488 65.2559 11.8301C65.2559 11.1855 65.2461 10.6094 65.2266 10.1016C65.207 9.57422 65.1875 9.13477 65.168 8.7832C65.1289 8.37305 65.0996 8.01172 65.0801 7.69922C65.041 7.38672 64.9922 7.04492 64.9336 6.67383C64.8945 6.3418 64.8262 5.96094 64.7285 5.53125C64.6504 5.08203 64.5625 4.58398 64.4648 4.03711ZM86.1738 7.875C86.6816 7.875 87.209 7.97266 87.7559 8.16797C88.3027 8.34375 88.8301 8.57812 89.3379 8.87109C89.8457 9.14453 90.3047 9.44727 90.7148 9.7793C91.1445 10.0918 91.4961 10.3945 91.7695 10.6875C92.2578 11.2148 92.5898 11.9277 92.7656 12.8262C92.9609 13.7051 93 14.6133 92.8828 15.5508C92.7656 16.4688 92.4922 17.3379 92.0625 18.1582C91.6328 18.9785 91.0371 19.584 90.2754 19.9746C89.7285 20.248 89.1914 20.4629 88.6641 20.6191C88.1367 20.7754 87.6289 20.8926 87.1406 20.9707C86.6523 21.0488 86.1934 21.0879 85.7637 21.0879C85.334 21.0879 84.9629 21.0781 84.6504 21.0586C84.0645 21.0195 83.4492 20.8145 82.8047 20.4434C82.1797 20.0723 81.584 19.6133 81.0176 19.0664C80.4707 18.5195 80.002 17.9238 79.6113 17.2793C79.2207 16.6152 78.9863 15.9902 78.9082 15.4043C78.791 14.6035 78.7715 13.7637 78.8496 12.8848C78.9277 12.0059 79.2109 11.1953 79.6992 10.4531C80.207 9.71094 80.9688 9.0957 81.9844 8.60742C83.0195 8.11914 84.416 7.875 86.1738 7.875ZM85.207 19.2422C85.4219 19.2812 85.7148 19.2324 86.0859 19.0957C86.457 18.9395 86.8184 18.6953 87.1699 18.3633C87.541 18.0312 87.8633 17.6113 88.1367 17.1035C88.4297 16.5762 88.6055 15.9414 88.6641 15.1992C88.7227 14.4766 88.7227 13.8125 88.6641 13.207C88.625 12.6016 88.5371 12.0742 88.4004 11.625C88.2637 11.1562 88.1074 10.7754 87.9316 10.4824C87.7559 10.1895 87.5703 9.98438 87.375 9.86719C87.043 9.69141 86.6426 9.55469 86.1738 9.45703C85.7051 9.33984 85.3047 9.35938 84.9727 9.51562C84.8164 9.59375 84.6211 9.75977 84.3867 10.0137C84.1523 10.2676 83.918 10.5898 83.6836 10.9805C83.4492 11.3516 83.2344 11.7812 83.0391 12.2695C82.8633 12.7578 82.7363 13.2656 82.6582 13.793C82.5801 14.3203 82.5605 14.8867 82.5996 15.4922C82.6582 16.0977 82.7852 16.6738 82.9805 17.2207C83.1758 17.748 83.4492 18.207 83.8008 18.5977C84.1719 18.9688 84.6406 19.1836 85.207 19.2422ZM95.1973 17.7773C95.334 17.1328 95.4316 16.5664 95.4902 16.0781C95.5684 15.5703 95.627 15.1504 95.666 14.8184C95.7051 14.4277 95.7246 14.0957 95.7246 13.8223C95.7051 13.4902 95.6855 13.0996 95.666 12.6504C95.666 12.1816 95.6465 11.7227 95.6074 11.2734C95.5879 10.8047 95.5586 10.3945 95.5195 10.043C95.4805 9.67188 95.4316 9.4082 95.373 9.25195C95.2949 9.0957 95.1875 8.92969 95.0508 8.75391C94.7773 8.42188 94.377 8.09961 93.8496 7.78711C94.2988 7.68945 94.6797 7.61133 94.9922 7.55273C95.3242 7.47461 95.5977 7.40625 95.8125 7.34766C96.0469 7.26953 96.252 7.20117 96.4277 7.14258C96.584 7.08398 96.7695 7.02539 96.9844 6.9668C97.1602 6.92773 97.375 6.87891 97.6289 6.82031C97.8828 6.76172 98.1758 6.69336 98.5078 6.61523L98.4199 9.28125C99.0449 8.53906 99.6797 7.98242 100.324 7.61133C100.969 7.24023 101.574 6.97656 102.141 6.82031C102.785 6.625 103.42 6.52734 104.045 6.52734C104.826 6.56641 105.549 6.69336 106.213 6.9082C106.896 7.12305 107.482 7.37695 107.971 7.66992C108.479 7.94336 108.889 8.23633 109.201 8.54883C109.514 8.86133 109.699 9.13477 109.758 9.36914C109.992 10.1309 110.051 10.834 109.934 11.4785C109.816 12.1035 109.66 12.7188 109.465 13.3242C109.289 13.9102 109.133 14.4961 108.996 15.082C108.879 15.668 108.928 16.3027 109.143 16.9863C109.221 17.1621 109.299 17.3379 109.377 17.5137C109.455 17.6699 109.553 17.8262 109.67 17.9824C109.787 18.1387 109.924 18.2656 110.08 18.3633C109.865 18.3438 109.65 18.334 109.436 18.334C109.221 18.3145 109.025 18.2949 108.85 18.2754C108.635 18.2559 108.439 18.2363 108.264 18.2168C108.068 18.1973 107.805 18.1875 107.473 18.1875C106.906 18.1875 106.027 18.2168 104.836 18.2754C105.012 17.8652 105.148 17.5234 105.246 17.25C105.363 16.957 105.461 16.7227 105.539 16.5469C105.617 16.332 105.676 16.166 105.715 16.0488C105.949 15.4824 106.086 14.8379 106.125 14.1152C106.184 13.3926 106.135 12.6602 105.979 11.918C105.92 11.6641 105.822 11.3613 105.686 11.0098C105.549 10.6582 105.363 10.3164 105.129 9.98438C104.914 9.65234 104.65 9.36914 104.338 9.13477C104.045 8.90039 103.703 8.76367 103.312 8.72461C102.922 8.68555 102.482 8.7832 101.994 9.01758C101.525 9.25195 101.018 9.68164 100.471 10.3066C100.061 10.834 99.7383 11.4785 99.5039 12.2402C99.2891 12.8848 99.1426 13.6953 99.0645 14.6719C98.9863 15.6289 99.1035 16.752 99.416 18.041C99.1426 18.002 98.8887 17.9824 98.6543 17.9824C98.4199 17.9629 98.2246 17.9434 98.0684 17.9238C97.873 17.9043 97.6973 17.8848 97.541 17.8652C97.3652 17.8652 97.1699 17.8555 96.9551 17.8359C96.7598 17.8359 96.5156 17.8359 96.2227 17.8359C95.9297 17.8164 95.5879 17.7969 95.1973 17.7773ZM119.484 16.2832C120.031 16.2832 120.539 16.2246 121.008 16.1074C121.398 16.0098 121.77 15.8535 122.121 15.6387C122.492 15.4043 122.736 15.0625 122.854 14.6133C123.244 14.6914 123.576 14.7598 123.85 14.8184C124.123 14.8574 124.357 14.8965 124.553 14.9355C124.768 14.9941 124.953 15.0332 125.109 15.0527C125.266 15.0918 125.451 15.1309 125.666 15.1699C125.861 15.209 126.096 15.2578 126.369 15.3164C126.662 15.3555 127.004 15.4141 127.395 15.4922C127.102 15.4531 126.799 15.4824 126.486 15.5801C126.193 15.6777 125.91 15.7852 125.637 15.9023C125.324 16.0391 125.031 16.2051 124.758 16.4004C124.582 16.5176 124.377 16.6934 124.143 16.9277C123.928 17.1621 123.615 17.3867 123.205 17.6016C122.795 17.8164 122.248 18.002 121.564 18.1582C120.9 18.2949 120.041 18.3438 118.986 18.3047C117.717 18.2656 116.652 18.041 115.793 17.6309C114.934 17.2012 114.24 16.6836 113.713 16.0781C113.186 15.4531 112.805 14.7793 112.57 14.0566C112.336 13.334 112.209 12.6602 112.189 12.0352C112.17 11.4102 112.355 10.7559 112.746 10.0723C113.137 9.38867 113.684 8.76367 114.387 8.19727C115.109 7.63086 115.979 7.17188 116.994 6.82031C118.01 6.44922 119.123 6.26367 120.334 6.26367C121.037 6.26367 121.682 6.35156 122.268 6.52734C122.873 6.68359 123.42 6.89844 123.908 7.17188C124.416 7.44531 124.855 7.75781 125.227 8.10938C125.598 8.44141 125.91 8.7832 126.164 9.13477C126.418 9.50586 126.633 9.89648 126.809 10.3066C126.965 10.6582 127.092 11.0586 127.189 11.5078C127.287 11.957 127.316 12.416 127.277 12.8848C125.793 12.9238 124.592 12.9531 123.674 12.9727C122.775 12.9922 122.072 13.002 121.564 13.002H120.246H119.25C118.898 13.002 118.439 13.0117 117.873 13.0312C117.307 13.0508 116.613 13.0801 115.793 13.1191C115.891 13.9004 116.135 14.5059 116.525 14.9355C116.936 15.3457 117.365 15.6582 117.814 15.873C118.322 16.1074 118.879 16.2441 119.484 16.2832ZM116.848 11.0098C117.473 11.0488 117.99 11.0781 118.4 11.0977C118.83 11.1172 119.182 11.1367 119.455 11.1562C119.748 11.1758 119.982 11.1855 120.158 11.1855H120.891C121.379 11.1855 122.287 11.1562 123.615 11.0977C123.557 10.2383 123.371 9.58398 123.059 9.13477C122.766 8.68555 122.453 8.35352 122.121 8.13867C121.73 7.9043 121.301 7.76758 120.832 7.72852C119.562 7.74805 118.615 8.01172 117.99 8.51953C117.385 9.02734 117.004 9.85742 116.848 11.0098Z" fill="white"/>
</svg>
