<svg width="51" height="50" viewBox="0 0 51 50" fill="none" xmlns="http://www.w3.org/2000/svg">
<path d="M13.8125 41.6666H10.625C8.27779 41.6666 6.375 39.8011 6.375 37.5V8.33329C6.375 6.03211 8.27779 4.16663 10.625 4.16663H40.375C42.7222 4.16663 44.625 6.03211 44.625 8.33329V37.5C44.625 39.8011 42.7222 41.6666 40.375 41.6666H37.1875M25.5 39.5833C29.0208 39.5833 31.875 36.7851 31.875 33.3333C31.875 29.8815 29.0208 27.0833 25.5 27.0833C21.9792 27.0833 19.125 29.8815 19.125 33.3333C19.125 36.7851 21.9792 39.5833 25.5 39.5833ZM25.5 39.5833L25.5456 39.5829L18.7609 46.2345L12.7505 40.3419L19.1668 34.0515M25.5 39.5833L32.2847 46.2345L38.2951 40.3419L31.8789 34.0515M19.125 12.5H31.875M14.875 19.7916H36.125" stroke="white" stroke-width="5" stroke-linecap="round" stroke-linejoin="round"/>
</svg>
