<svg width="50" height="50" viewBox="0 0 50 50" fill="none" xmlns="http://www.w3.org/2000/svg">
<path d="M22.9166 8.33336H14.1666C10.6663 8.33336 8.91613 8.33336 7.57919 9.01457C6.40317 9.61378 5.44704 10.5699 4.84784 11.7459C4.16663 13.0829 4.16663 14.833 4.16663 18.3334V35.8334C4.16663 39.3337 4.16663 41.0839 4.84784 42.4208C5.44704 43.5968 6.40317 44.5529 7.57919 45.1521C8.91613 45.8334 10.6663 45.8334 14.1666 45.8334H31.6666C35.167 45.8334 36.9171 45.8334 38.2541 45.1521C39.4301 44.5529 40.3862 43.5968 40.9854 42.4208C41.6666 41.0839 41.6666 39.3337 41.6666 35.8334V27.0834M16.6666 33.3334H20.1552C21.1743 33.3334 21.6839 33.3334 22.1634 33.2182C22.5886 33.1162 22.995 32.9478 23.3678 32.7194C23.7883 32.4617 24.1486 32.1014 24.8692 31.3807L44.7916 11.4584C46.5175 9.73247 46.5175 6.93425 44.7916 5.20836C43.0657 3.48247 40.2675 3.48247 38.5416 5.20835L18.6192 25.1307C17.8986 25.8514 17.5382 26.2117 17.2806 26.6322C17.0521 27.005 16.8838 27.4114 16.7817 27.8366C16.6666 28.3161 16.6666 28.8257 16.6666 29.8448V33.3334Z" stroke="white" stroke-width="5" stroke-linecap="round" stroke-linejoin="round"/>
</svg>
