<svg width="131" height="25" viewBox="0 0 131 25" fill="none" xmlns="http://www.w3.org/2000/svg">
<path d="M0.585938 1.78516C1.75781 1.88281 2.7832 1.94141 3.66211 1.96094C4.56055 1.98047 5.32227 1.99023 5.94727 1.99023C6.66992 1.99023 7.29492 1.9707 7.82227 1.93164C8.36914 1.87305 9.08203 1.79492 9.96094 1.69727C10.7031 1.59961 11.6602 1.47266 12.832 1.31641C14.0039 1.14062 15.4297 0.916016 17.1094 0.642578C16.8945 0.974609 16.709 1.32617 16.5527 1.69727C16.416 2.04883 16.2988 2.37109 16.2012 2.66406C16.1035 3.01562 16.0156 3.35742 15.9375 3.68945C15.8789 4.06055 15.8105 4.51953 15.7324 5.06641C15.6543 5.53516 15.5566 6.13086 15.4395 6.85352C15.3418 7.55664 15.2148 8.39648 15.0586 9.37305C14.4727 7.84961 13.877 6.67773 13.2715 5.85742C12.6855 5.03711 12.1387 4.43164 11.6309 4.04102C11.0449 3.5918 10.4883 3.33789 9.96094 3.2793C9.19922 3.2793 8.57422 3.42578 8.08594 3.71875C7.59766 4.01172 7.19727 4.39258 6.88477 4.86133C6.5918 5.31055 6.36719 5.80859 6.21094 6.35547C6.05469 6.88281 5.94727 7.40039 5.88867 7.9082C5.83008 8.39648 5.79102 8.83594 5.77148 9.22656C5.75195 9.59766 5.73242 9.85156 5.71289 9.98828C6.39648 9.94922 6.97266 9.90039 7.44141 9.8418C7.91016 9.7832 8.28125 9.72461 8.55469 9.66602C8.88672 9.58789 9.15039 9.50977 9.3457 9.43164C9.63867 9.27539 9.93164 9.08984 10.2246 8.875C10.4785 8.67969 10.7422 8.44531 11.0156 8.17188C11.3086 7.89844 11.5625 7.56641 11.7773 7.17578C11.6602 7.87891 11.5527 8.46484 11.4551 8.93359C11.377 9.40234 11.3086 9.77344 11.25 10.0469C11.1719 10.3789 11.123 10.6328 11.1035 10.8086C11.0645 10.9844 11.0156 11.2285 10.957 11.541C10.8984 11.8145 10.8301 12.166 10.752 12.5957C10.6738 13.0254 10.5859 13.5625 10.4883 14.207C10.2539 13.7969 10.0098 13.4648 9.75586 13.2109C9.50195 12.9375 9.26758 12.7227 9.05273 12.5664C8.79883 12.3906 8.55469 12.2539 8.32031 12.1562C8.06641 12.0781 7.79297 12 7.5 11.9219C7.24609 11.8633 6.94336 11.8047 6.5918 11.7461C6.25977 11.668 5.89844 11.5996 5.50781 11.541C5.54688 12.5957 5.60547 13.5039 5.68359 14.2656C5.76172 15.0078 5.83008 15.6328 5.88867 16.1406C5.9668 16.7266 6.04492 17.2148 6.12305 17.6055C6.2207 17.9961 6.37695 18.416 6.5918 18.8652C6.76758 19.2559 7.01172 19.7051 7.32422 20.2129C7.65625 20.7012 8.07617 21.2285 8.58398 21.7949C8.19336 21.6973 7.7832 21.6289 7.35352 21.5898C6.92383 21.5508 6.54297 21.5215 6.21094 21.502C5.80078 21.4824 5.41016 21.4824 5.03906 21.502C4.64844 21.5215 4.21875 21.5605 3.75 21.6191C3.35938 21.6582 2.91016 21.7168 2.40234 21.7949C1.89453 21.873 1.35742 21.9609 0.791016 22.0586C1.12305 21.7266 1.39648 21.3945 1.61133 21.0625C1.82617 20.7305 1.98242 20.4375 2.08008 20.1836C2.19727 19.8906 2.27539 19.6074 2.31445 19.334C2.33398 19.0996 2.34375 18.5918 2.34375 17.8105C2.34375 17.0098 2.33398 16.082 2.31445 15.0273C2.29492 13.9531 2.26562 12.8203 2.22656 11.6289C2.1875 10.4375 2.14844 9.32422 2.10938 8.28906C2.07031 7.23438 2.02148 6.33594 1.96289 5.59375C1.92383 4.85156 1.875 4.40234 1.81641 4.24609C1.73828 4.05078 1.65039 3.82617 1.55273 3.57227C1.39648 3.16211 1.07422 2.56641 0.585938 1.78516ZM17.5195 10.1348C17.6172 10.0176 17.6758 9.80273 17.6953 9.49023C17.7344 9.1582 17.8125 8.78711 17.9297 8.37695C18.0664 7.9668 18.291 7.53711 18.6035 7.08789C18.916 6.63867 19.4238 6.21875 20.127 5.82812C20.8105 5.4375 21.4746 5.20312 22.1191 5.125C22.7637 5.04688 23.3789 5.07617 23.9648 5.21289C24.5508 5.34961 25.0977 5.56445 25.6055 5.85742C26.1328 6.15039 26.6113 6.47266 27.041 6.82422C27.334 7.05859 27.5684 7.40039 27.7441 7.84961C27.9199 8.2793 28.0566 8.76758 28.1543 9.31445C28.252 9.86133 28.3203 10.4375 28.3594 11.043C28.418 11.6289 28.457 12.2051 28.4766 12.7715C28.4961 13.3184 28.5059 13.8262 28.5059 14.2949C28.5254 14.7441 28.5645 15.1152 28.623 15.4082C28.7012 15.8379 28.8379 16.209 29.0332 16.5215C29.2285 16.8145 29.4434 17.0684 29.6777 17.2832C29.9121 17.4785 30.1465 17.6348 30.3809 17.752C30.6152 17.8691 30.8203 17.957 30.9961 18.0156C31.1133 18.0742 31.2207 18.1133 31.3184 18.1328C31.5137 18.2109 31.6504 18.2109 31.7285 18.1328C31.6113 18.4062 31.5039 18.6406 31.4062 18.8359C31.3086 19.0312 31.2305 19.1973 31.1719 19.334C31.0938 19.4902 31.0254 19.6172 30.9668 19.7148C30.9082 19.832 30.8398 19.9395 30.7617 20.0371C30.7031 20.1348 30.625 20.2422 30.5273 20.3594C30.4297 20.4766 30.332 20.6035 30.2344 20.7402C29.9805 20.6426 29.7363 20.5254 29.502 20.3887C29.2871 20.252 29.0918 20.125 28.916 20.0078C28.7012 19.8711 28.5059 19.7344 28.3301 19.5977C28.1543 19.4609 27.9883 19.3047 27.832 19.1289C27.6953 18.9727 27.5488 18.8066 27.3926 18.6309C27.2559 18.4551 27.1387 18.2598 27.041 18.0449C26.9238 18.2988 26.6406 18.6602 26.1914 19.1289C25.7617 19.5977 25.1953 20.0273 24.4922 20.418C23.7891 20.7891 22.9688 21.0527 22.0312 21.209C21.1133 21.3652 20.0977 21.2578 18.9844 20.8867C18.4961 20.7305 18.0371 20.5059 17.6074 20.2129C17.1777 19.9004 16.8066 19.5293 16.4941 19.0996C16.2012 18.6699 15.9863 18.1816 15.8496 17.6348C15.7324 17.0684 15.7422 16.4434 15.8789 15.7598C16.0156 15.0762 16.2598 14.5 16.6113 14.0312C16.9629 13.5625 17.3828 13.1816 17.8711 12.8887C18.3594 12.5957 18.9062 12.3711 19.5117 12.2148C20.1172 12.0586 20.7422 11.9512 21.3867 11.8926C21.8945 11.873 22.4023 11.9023 22.9102 11.9805C23.3398 12.0586 23.7891 12.2051 24.2578 12.4199C24.7266 12.6152 25.127 12.918 25.459 13.3281C25.4395 12.293 25.4004 11.4727 25.3418 10.8672C25.3027 10.2422 25.2637 9.76367 25.2246 9.43164C25.1465 9.04102 25.0781 8.76758 25.0195 8.61133C24.9219 8.47461 24.8145 8.31836 24.6973 8.14258C24.5996 7.9668 24.4727 7.81055 24.3164 7.67383C24.1602 7.51758 23.9648 7.39062 23.7305 7.29297C23.4961 7.19531 23.2227 7.15625 22.9102 7.17578C22.5781 7.19531 22.3145 7.2832 22.1191 7.43945C21.9238 7.5957 21.7676 7.78125 21.6504 7.99609C21.5527 8.19141 21.4941 8.40625 21.4746 8.64062C21.4551 8.875 21.4648 9.08008 21.5039 9.25586C21.543 9.37305 21.6016 9.5 21.6797 9.63672C21.7578 9.75391 21.8652 9.88086 22.002 10.0176C22.1387 10.1543 22.3242 10.2715 22.5586 10.3691C22.1094 10.4277 21.709 10.4766 21.3574 10.5156C21.0059 10.5352 20.7031 10.5645 20.4492 10.6035C20.1562 10.6426 19.9023 10.6719 19.6875 10.6914C19.4727 10.7109 19.2188 10.75 18.9258 10.8086C18.6719 10.8477 18.3594 10.8965 17.9883 10.9551C17.6172 11.0137 17.1875 11.0918 16.6992 11.1895C16.8164 11.0527 16.9238 10.9258 17.0215 10.8086C17.1191 10.6719 17.207 10.5547 17.2852 10.457C17.3633 10.3398 17.4414 10.2324 17.5195 10.1348ZM21.9141 13.6211C21.5625 13.6406 21.2109 13.7285 20.8594 13.8848C20.5078 14.0215 20.1953 14.2266 19.9219 14.5C19.6484 14.7539 19.4141 15.0566 19.2188 15.4082C19.043 15.7402 18.9551 16.1113 18.9551 16.5215C18.9551 16.9316 19.0527 17.293 19.248 17.6055C19.4629 17.8984 19.7363 18.1426 20.0684 18.3379C20.4199 18.5332 20.791 18.6504 21.1816 18.6895C21.5918 18.7285 21.9922 18.6895 22.3828 18.5723C22.7539 18.4355 23.1055 18.2207 23.4375 17.9277C23.7695 17.6152 24.0527 17.2832 24.2871 16.9316C24.5215 16.5605 24.6875 16.1992 24.7852 15.8477C24.8828 15.4766 24.8926 15.1738 24.8145 14.9395C24.6582 14.4316 24.3066 14.0801 23.7598 13.8848C23.2129 13.6699 22.5977 13.582 21.9141 13.6211ZM47.8125 11.5996C47.5781 11.5605 47.2852 11.5312 46.9336 11.5117C46.6016 11.4922 46.2793 11.4824 45.9668 11.4824C45.6152 11.4824 45.2441 11.4922 44.8535 11.5117C44.4434 11.5312 44.0332 11.5508 43.623 11.5703C43.2715 11.5898 42.8711 11.6191 42.4219 11.6582C41.9922 11.6777 41.5723 11.707 41.1621 11.7461C41.3184 11.668 41.4551 11.5605 41.5723 11.4238C41.709 11.2871 41.8262 11.1504 41.9238 11.0137C42.0215 10.8574 42.1094 10.6914 42.1875 10.5156C42.2852 10.2227 42.2754 9.87109 42.1582 9.46094C42.041 9.03125 41.8262 8.64062 41.5137 8.28906C41.2207 7.9375 40.8398 7.66406 40.3711 7.46875C39.9219 7.25391 39.4238 7.20508 38.877 7.32227C38.291 7.45898 37.7637 7.66406 37.2949 7.9375C36.8457 8.21094 36.4648 8.5918 36.1523 9.08008C35.8594 9.54883 35.6445 10.1348 35.5078 10.8379C35.3906 11.5215 35.3613 12.3418 35.4199 13.2988C35.498 14.4902 35.6934 15.4375 36.0059 16.1406C36.3184 16.8438 36.6992 17.3711 37.1484 17.7227C37.5977 18.0742 38.0859 18.2891 38.6133 18.3672C39.1602 18.4258 39.6973 18.4258 40.2246 18.3672C40.5957 18.2891 40.9375 18.123 41.25 17.8691C41.5039 17.6543 41.7383 17.3418 41.9531 16.9316C42.168 16.5215 42.2656 15.9551 42.2461 15.2324L45.8203 15.0859C45.4102 16.2383 44.9121 17.1562 44.3262 17.8398C43.7402 18.5039 43.1738 19.0215 42.627 19.3926C41.9824 19.8223 41.3379 20.1152 40.6934 20.2715C39.8926 20.4082 39.1797 20.4668 38.5547 20.4473C37.9297 20.4082 37.3633 20.3105 36.8555 20.1543C36.3477 19.998 35.8789 19.8027 35.4492 19.5684C35.0195 19.334 34.6094 19.0801 34.2188 18.8066C33.9648 18.6309 33.6816 18.3379 33.3691 17.9277C33.0566 17.5176 32.7637 17.0293 32.4902 16.4629C32.2168 15.877 31.9922 15.2324 31.8164 14.5293C31.6406 13.8262 31.5723 13.1035 31.6113 12.3613C31.6504 11.5996 31.8262 10.8379 32.1387 10.0762C32.4512 9.31445 32.9492 8.58203 33.6328 7.87891C34.668 6.82422 35.7715 6.14062 36.9434 5.82812C38.1348 5.49609 39.2578 5.4082 40.3125 5.56445C41.3672 5.70117 42.3047 6.00391 43.125 6.47266C43.9453 6.94141 44.5215 7.44922 44.8535 7.99609C45.1855 8.54297 45.4297 8.96289 45.5859 9.25586C45.7617 9.5293 45.8887 9.74414 45.9668 9.90039C46.0645 10.0371 46.1426 10.1445 46.2012 10.2227C46.2793 10.2812 46.3867 10.3691 46.5234 10.4863C46.6211 10.584 46.7383 10.6914 46.875 10.8086C46.9922 10.9062 47.1289 11.0234 47.2852 11.1602C47.4414 11.2969 47.6172 11.4434 47.8125 11.5996ZM54.9902 17.2832C55.5371 17.2832 56.0449 17.2246 56.5137 17.1074C56.9043 17.0098 57.2754 16.8535 57.627 16.6387C57.998 16.4043 58.2422 16.0625 58.3594 15.6133C58.75 15.6914 59.082 15.7598 59.3555 15.8184C59.6289 15.8574 59.8633 15.8965 60.0586 15.9355C60.2734 15.9941 60.459 16.0332 60.6152 16.0527C60.7715 16.0918 60.957 16.1309 61.1719 16.1699C61.3672 16.209 61.6016 16.2578 61.875 16.3164C62.168 16.3555 62.5098 16.4141 62.9004 16.4922C62.6074 16.4531 62.3047 16.4824 61.9922 16.5801C61.6992 16.6777 61.416 16.7852 61.1426 16.9023C60.8301 17.0391 60.5371 17.2051 60.2637 17.4004C60.0879 17.5176 59.8828 17.6934 59.6484 17.9277C59.4336 18.1621 59.1211 18.3867 58.7109 18.6016C58.3008 18.8164 57.7539 19.002 57.0703 19.1582C56.4062 19.2949 55.5469 19.3438 54.4922 19.3047C53.2227 19.2656 52.1582 19.041 51.2988 18.6309C50.4395 18.2012 49.7461 17.6836 49.2188 17.0781C48.6914 16.4531 48.3105 15.7793 48.0762 15.0566C47.8418 14.334 47.7148 13.6602 47.6953 13.0352C47.6758 12.4102 47.8613 11.7559 48.252 11.0723C48.6426 10.3887 49.1895 9.76367 49.8926 9.19727C50.6152 8.63086 51.4844 8.17188 52.5 7.82031C53.5156 7.44922 54.6289 7.26367 55.8398 7.26367C56.543 7.26367 57.1875 7.35156 57.7734 7.52734C58.3789 7.68359 58.9258 7.89844 59.4141 8.17188C59.9219 8.44531 60.3613 8.75781 60.7324 9.10938C61.1035 9.44141 61.416 9.7832 61.6699 10.1348C61.9238 10.5059 62.1387 10.8965 62.3145 11.3066C62.4707 11.6582 62.5977 12.0586 62.6953 12.5078C62.793 12.957 62.8223 13.416 62.7832 13.8848C61.2988 13.9238 60.0977 13.9531 59.1797 13.9727C58.2812 13.9922 57.5781 14.002 57.0703 14.002H55.752H54.7559C54.4043 14.002 53.9453 14.0117 53.3789 14.0312C52.8125 14.0508 52.1191 14.0801 51.2988 14.1191C51.3965 14.9004 51.6406 15.5059 52.0312 15.9355C52.4414 16.3457 52.8711 16.6582 53.3203 16.873C53.8281 17.1074 54.3848 17.2441 54.9902 17.2832ZM52.3535 12.0098C52.9785 12.0488 53.4961 12.0781 53.9062 12.0977C54.3359 12.1172 54.6875 12.1367 54.9609 12.1562C55.2539 12.1758 55.4883 12.1855 55.6641 12.1855H56.3965C56.8848 12.1855 57.793 12.1562 59.1211 12.0977C59.0625 11.2383 58.877 10.584 58.5645 10.1348C58.2715 9.68555 57.959 9.35352 57.627 9.13867C57.2363 8.9043 56.8066 8.76758 56.3379 8.72852C55.0684 8.74805 54.1211 9.01172 53.4961 9.51953C52.8906 10.0273 52.5098 10.8574 52.3535 12.0098ZM63.9551 1.43359C64.4043 1.55078 64.8145 1.63867 65.1855 1.69727C65.5762 1.73633 65.9082 1.76562 66.1816 1.78516C66.5137 1.80469 66.8164 1.81445 67.0898 1.81445C67.3633 1.81445 67.7051 1.79492 68.1152 1.75586C68.8379 1.69727 69.8633 1.55078 71.1914 1.31641C70.9766 1.47266 70.7715 1.62891 70.5762 1.78516C70.4004 1.92188 70.2441 2.05859 70.1074 2.19531L69.668 2.63477C69.4141 2.98633 69.1602 3.58203 68.9062 4.42188C68.6914 5.14453 68.457 6.16016 68.2031 7.46875C67.9688 8.77734 67.7539 10.5156 67.5586 12.6836C68.5156 11.7461 69.4141 11.043 70.2539 10.5742C71.1133 10.0859 71.8652 9.73438 72.5098 9.51953C73.2715 9.28516 73.9648 9.1582 74.5898 9.13867C75.3906 9.19727 76.084 9.36328 76.6699 9.63672C77.2754 9.89062 77.7832 10.2031 78.1934 10.5742C78.623 10.9258 78.9648 11.2969 79.2188 11.6875C79.4922 12.0586 79.6973 12.3906 79.834 12.6836C79.9121 12.8789 79.9707 13.2402 80.0098 13.7676C80.0684 14.2754 80.0781 14.8613 80.0391 15.5254C80 16.1895 79.8926 16.8926 79.7168 17.6348C79.5605 18.3574 79.2969 19.0312 78.9258 19.6562C78.5742 20.2617 78.1055 20.7695 77.5195 21.1797C76.9531 21.5898 76.2402 21.8145 75.3809 21.8535C74.3848 21.8535 73.418 21.7363 72.4805 21.502C71.6797 21.3066 70.8301 20.9648 69.9316 20.4766C69.0527 19.9688 68.3008 19.2461 67.6758 18.3086C67.6758 18.543 67.6758 18.7773 67.6758 19.0117C67.6758 19.2266 67.6855 19.4121 67.7051 19.5684C67.7246 19.7832 67.7441 19.9688 67.7637 20.125C67.7832 20.3008 67.832 20.4863 67.9102 20.6816C67.9688 20.8379 68.0566 21.0332 68.1738 21.2676C68.3105 21.4824 68.4863 21.6973 68.7012 21.9121C68.4863 21.8926 68.2715 21.8828 68.0566 21.8828C67.8418 21.8633 67.627 21.8633 67.4121 21.8828C67.1777 21.9023 66.9434 21.9219 66.709 21.9414C66.4746 21.9609 66.2305 21.9902 65.9766 22.0293C65.7617 22.0684 65.5078 22.1172 65.2148 22.1758C64.9219 22.2344 64.6191 22.3027 64.3066 22.3809C64.3652 22.2051 64.4141 21.9512 64.4531 21.6191C64.4922 21.2676 64.5312 20.8867 64.5703 20.4766C64.6289 20.0469 64.668 19.5977 64.6875 19.1289C64.7266 18.6602 64.7656 18.1914 64.8047 17.7227C64.8828 16.6484 64.9512 15.4766 65.0098 14.207C65.0684 12.2344 65.0781 10.3984 65.0391 8.69922C65.0195 7.97656 64.9805 7.24414 64.9219 6.50195C64.8828 5.75977 64.8242 5.06641 64.7461 4.42188C64.668 3.75781 64.5605 3.17188 64.4238 2.66406C64.3066 2.13672 64.1504 1.72656 63.9551 1.43359ZM67.7637 15.7012C68.0762 16.2676 68.4082 16.7559 68.7598 17.166C69.1113 17.5566 69.4629 17.8887 69.8145 18.1621C70.166 18.4355 70.5078 18.6504 70.8398 18.8066C71.1914 18.9629 71.5234 19.0801 71.8359 19.1582C72.5586 19.3535 73.2715 19.373 73.9746 19.2168C74.6777 19.0215 75.2246 18.6309 75.6152 18.0449C76.0059 17.459 76.3086 16.7949 76.5234 16.0527C76.6211 15.7012 76.6797 15.252 76.6992 14.7051C76.7383 14.1582 76.6797 13.6309 76.5234 13.123C76.3867 12.5957 76.1328 12.1367 75.7617 11.7461C75.3906 11.3359 74.8535 11.0918 74.1504 11.0137C73.6621 11.0137 73.0957 11.1504 72.4512 11.4238C71.8848 11.6582 71.2109 12.0488 70.4297 12.5957C69.6484 13.123 68.7598 13.9141 67.7637 14.9688V15.7012ZM89.2676 8.875C89.7754 8.875 90.3027 8.97266 90.8496 9.16797C91.3965 9.34375 91.9238 9.57812 92.4316 9.87109C92.9395 10.1445 93.3984 10.4473 93.8086 10.7793C94.2383 11.0918 94.5898 11.3945 94.8633 11.6875C95.3516 12.2148 95.6836 12.9277 95.8594 13.8262C96.0547 14.7051 96.0938 15.6133 95.9766 16.5508C95.8594 17.4688 95.5859 18.3379 95.1562 19.1582C94.7266 19.9785 94.1309 20.584 93.3691 20.9746C92.8223 21.248 92.2852 21.4629 91.7578 21.6191C91.2305 21.7754 90.7227 21.8926 90.2344 21.9707C89.7461 22.0488 89.2871 22.0879 88.8574 22.0879C88.4277 22.0879 88.0566 22.0781 87.7441 22.0586C87.1582 22.0195 86.543 21.8145 85.8984 21.4434C85.2734 21.0723 84.6777 20.6133 84.1113 20.0664C83.5645 19.5195 83.0957 18.9238 82.7051 18.2793C82.3145 17.6152 82.0801 16.9902 82.002 16.4043C81.8848 15.6035 81.8652 14.7637 81.9434 13.8848C82.0215 13.0059 82.3047 12.1953 82.793 11.4531C83.3008 10.7109 84.0625 10.0957 85.0781 9.60742C86.1133 9.11914 87.5098 8.875 89.2676 8.875ZM88.3008 20.2422C88.5156 20.2812 88.8086 20.2324 89.1797 20.0957C89.5508 19.9395 89.9121 19.6953 90.2637 19.3633C90.6348 19.0312 90.957 18.6113 91.2305 18.1035C91.5234 17.5762 91.6992 16.9414 91.7578 16.1992C91.8164 15.4766 91.8164 14.8125 91.7578 14.207C91.7188 13.6016 91.6309 13.0742 91.4941 12.625C91.3574 12.1562 91.2012 11.7754 91.0254 11.4824C90.8496 11.1895 90.6641 10.9844 90.4688 10.8672C90.1367 10.6914 89.7363 10.5547 89.2676 10.457C88.7988 10.3398 88.3984 10.3594 88.0664 10.5156C87.9102 10.5938 87.7148 10.7598 87.4805 11.0137C87.2461 11.2676 87.0117 11.5898 86.7773 11.9805C86.543 12.3516 86.3281 12.7812 86.1328 13.2695C85.957 13.7578 85.8301 14.2656 85.752 14.793C85.6738 15.3203 85.6543 15.8867 85.6934 16.4922C85.752 17.0977 85.8789 17.6738 86.0742 18.2207C86.2695 18.748 86.543 19.207 86.8945 19.5977C87.2656 19.9688 87.7344 20.1836 88.3008 20.2422ZM105.234 8.875C105.742 8.875 106.27 8.97266 106.816 9.16797C107.363 9.34375 107.891 9.57812 108.398 9.87109C108.906 10.1445 109.365 10.4473 109.775 10.7793C110.205 11.0918 110.557 11.3945 110.83 11.6875C111.318 12.2148 111.65 12.9277 111.826 13.8262C112.021 14.7051 112.061 15.6133 111.943 16.5508C111.826 17.4688 111.553 18.3379 111.123 19.1582C110.693 19.9785 110.098 20.584 109.336 20.9746C108.789 21.248 108.252 21.4629 107.725 21.6191C107.197 21.7754 106.689 21.8926 106.201 21.9707C105.713 22.0488 105.254 22.0879 104.824 22.0879C104.395 22.0879 104.023 22.0781 103.711 22.0586C103.125 22.0195 102.51 21.8145 101.865 21.4434C101.24 21.0723 100.645 20.6133 100.078 20.0664C99.5312 19.5195 99.0625 18.9238 98.6719 18.2793C98.2812 17.6152 98.0469 16.9902 97.9688 16.4043C97.8516 15.6035 97.832 14.7637 97.9102 13.8848C97.9883 13.0059 98.2715 12.1953 98.7598 11.4531C99.2676 10.7109 100.029 10.0957 101.045 9.60742C102.08 9.11914 103.477 8.875 105.234 8.875ZM104.268 20.2422C104.482 20.2812 104.775 20.2324 105.146 20.0957C105.518 19.9395 105.879 19.6953 106.23 19.3633C106.602 19.0312 106.924 18.6113 107.197 18.1035C107.49 17.5762 107.666 16.9414 107.725 16.1992C107.783 15.4766 107.783 14.8125 107.725 14.207C107.686 13.6016 107.598 13.0742 107.461 12.625C107.324 12.1562 107.168 11.7754 106.992 11.4824C106.816 11.1895 106.631 10.9844 106.436 10.8672C106.104 10.6914 105.703 10.5547 105.234 10.457C104.766 10.3398 104.365 10.3594 104.033 10.5156C103.877 10.5938 103.682 10.7598 103.447 11.0137C103.213 11.2676 102.979 11.5898 102.744 11.9805C102.51 12.3516 102.295 12.7812 102.1 13.2695C101.924 13.7578 101.797 14.2656 101.719 14.793C101.641 15.3203 101.621 15.8867 101.66 16.4922C101.719 17.0977 101.846 17.6738 102.041 18.2207C102.236 18.748 102.51 19.207 102.861 19.5977C103.232 19.9688 103.701 20.1836 104.268 20.2422ZM113.057 0.876953C113.271 0.974609 113.525 1.04297 113.818 1.08203C114.131 1.12109 114.424 1.14062 114.697 1.14062C115.029 1.14062 115.371 1.13086 115.723 1.11133C116.074 1.0918 116.504 1.05273 117.012 0.994141C117.422 0.955078 117.93 0.90625 118.535 0.847656C119.141 0.789062 119.814 0.710938 120.557 0.613281C120.283 0.75 120.049 0.896484 119.854 1.05273C119.658 1.20898 119.492 1.36523 119.355 1.52148C119.199 1.69727 119.072 1.87305 118.975 2.04883C118.838 2.2832 118.652 2.69336 118.418 3.2793C118.203 3.8457 117.979 4.48047 117.744 5.18359C117.529 5.88672 117.334 6.59961 117.158 7.32227C117.002 8.04492 116.914 8.66016 116.895 9.16797C116.875 9.59766 116.855 10.0859 116.836 10.6328C116.816 11.1016 116.797 11.6777 116.777 12.3613C116.758 13.0449 116.738 13.8262 116.719 14.7051C118.125 13.6895 119.209 12.8789 119.971 12.2734C120.732 11.6484 121.289 11.1699 121.641 10.8379C122.051 10.4668 122.295 10.2031 122.373 10.0469C122.354 9.92969 122.305 9.80273 122.227 9.66602C122.129 9.54883 121.992 9.41211 121.816 9.25586C121.641 9.09961 121.377 8.92383 121.025 8.72852C121.533 8.78711 121.973 8.82617 122.344 8.8457C122.734 8.86523 123.066 8.88477 123.34 8.9043C123.652 8.92383 123.926 8.92383 124.16 8.9043C124.414 8.9043 124.727 8.89453 125.098 8.875C125.742 8.85547 126.738 8.82617 128.086 8.78711C126.777 9.4707 125.742 10.0566 124.98 10.5449C124.551 10.8184 124.17 11.0723 123.838 11.3066C123.506 11.5605 123.164 11.8242 122.812 12.0977C122.5 12.332 122.139 12.6055 121.729 12.918C121.338 13.2305 120.947 13.5625 120.557 13.9141C121.24 15.0273 121.836 15.9453 122.344 16.668C122.871 17.3906 123.311 17.9766 123.662 18.4258C124.072 18.9531 124.434 19.373 124.746 19.6855C125.059 19.9785 125.469 20.3105 125.977 20.6816C126.406 21.0137 126.963 21.4043 127.646 21.8535C128.35 22.2832 129.199 22.7812 130.195 23.3477C129.688 23.25 129.199 23.1816 128.73 23.1426C128.262 23.123 127.861 23.123 127.529 23.1426C127.119 23.1621 126.748 23.2012 126.416 23.2598C126.064 23.3379 125.674 23.4355 125.244 23.5527C124.873 23.6504 124.434 23.7773 123.926 23.9336C123.438 24.1094 122.9 24.334 122.314 24.6074C122.686 24.334 122.959 24.0703 123.135 23.8164C123.33 23.582 123.467 23.3867 123.545 23.2305C123.623 23.0352 123.652 22.8691 123.633 22.7324C123.535 22.5371 123.311 22.1367 122.959 21.5312C122.627 21.0234 122.139 20.2812 121.494 19.3047C120.85 18.3281 119.932 17 118.74 15.3203C118.682 15.3398 118.584 15.3984 118.447 15.4961C118.33 15.5938 118.154 15.7305 117.92 15.9062C117.686 16.0625 117.373 16.2969 116.982 16.6094L117.773 21.7363C117.598 21.8145 117.402 21.8828 117.188 21.9414C116.992 22 116.807 22.0488 116.631 22.0879C116.416 22.1465 116.201 22.1855 115.986 22.2051C115.771 22.2246 115.518 22.2637 115.225 22.3223C114.971 22.3613 114.668 22.4102 114.316 22.4688C113.965 22.5469 113.564 22.6348 113.115 22.7324C113.369 22.5566 113.574 22.3516 113.73 22.1172C113.887 21.9023 114.014 21.6973 114.111 21.502C114.209 21.2871 114.297 21.0625 114.375 20.8281C114.414 20.6328 114.453 20.125 114.492 19.3047C114.551 18.4844 114.6 17.5078 114.639 16.375C114.678 15.2227 114.707 13.9922 114.727 12.6836C114.766 11.375 114.785 10.1445 114.785 8.99219C114.785 7.82031 114.775 6.80469 114.756 5.94531C114.736 5.06641 114.697 4.5 114.639 4.24609C114.541 3.93359 114.424 3.60156 114.287 3.25C114.17 2.9375 114.004 2.58594 113.789 2.19531C113.594 1.78516 113.35 1.3457 113.057 0.876953Z" fill="white"/>
</svg>
