<svg width="38" height="49" viewBox="0 0 38 49" fill="none" xmlns="http://www.w3.org/2000/svg">
<path d="M12.9583 47.4166H25.0416M14.1666 19.9166H23.8333M19 19.9166L19 33.6666M26.25 32.1229C31.9653 29.5483 35.9166 24.0242 35.9166 17.625C35.9166 8.76541 28.3428 1.58331 19 1.58331C9.65716 1.58331 2.08331 8.76541 2.08331 17.625C2.08331 24.0242 6.03469 29.5483 11.75 32.1229V33.6666C11.75 35.8022 11.75 36.87 12.1179 37.7123C12.6084 38.8353 13.5494 39.7276 14.7337 40.1928C15.6219 40.5416 16.7479 40.5416 19 40.5416C21.252 40.5416 22.3781 40.5416 23.2663 40.1928C24.4506 39.7276 25.3915 38.8353 25.8821 37.7123C26.25 36.87 26.25 35.8022 26.25 33.6666V32.1229Z" stroke="white" stroke-width="3" stroke-linecap="round" stroke-linejoin="round"/>
</svg>
