<svg width="42" height="42" viewBox="0 0 42 42" fill="none" xmlns="http://www.w3.org/2000/svg">
<path d="M8.5 40.5H14.75M27.25 40.5H33.5M32.4583 9.08333V26.4167M2.25 8.43333L2.25 27.0667C2.25 29.4936 2.25 30.707 2.70414 31.634C3.10361 32.4493 3.74103 33.1122 4.52504 33.5277C5.41634 34 6.58311 34 8.91667 34L33.0833 34C35.4169 34 36.5837 34 37.475 33.5277C38.259 33.1122 38.8964 32.4493 39.2959 31.634C39.75 30.707 39.75 29.4936 39.75 27.0667V8.43334C39.75 6.00644 39.75 4.793 39.2959 3.86604C38.8964 3.05068 38.259 2.38776 37.475 1.97231C36.5837 1.5 35.4169 1.5 33.0833 1.5L8.91667 1.5C6.58312 1.5 5.41634 1.5 4.52504 1.9723C3.74103 2.38776 3.10361 3.05067 2.70414 3.86604C2.25 4.79299 2.25 6.00644 2.25 8.43333ZM19.9583 17.75C19.9583 20.7415 17.6265 23.1667 14.75 23.1667C11.8735 23.1667 9.54167 20.7415 9.54167 17.75C9.54167 14.7585 11.8735 12.3333 14.75 12.3333C17.6265 12.3333 19.9583 14.7585 19.9583 17.75Z" stroke="white" stroke-width="3" stroke-linecap="round" stroke-linejoin="round"/>
</svg>
