<svg width="180" height="55" viewBox="0 0 180 55" fill="none" xmlns="http://www.w3.org/2000/svg">
<g clip-path="url(#clip0_338_321)">
<path d="M101.657 24.4917C99.516 18.8294 92.5706 21.3677 91.9291 24.1988C91.0435 21.1864 84.2725 18.941 82.2014 24.4986C79.9002 30.6909 91.1272 36.2416 91.9291 37.1551C92.731 36.4299 103.958 30.5863 101.657 24.4986V24.4917Z" fill="#EC184A"/>
<path d="M154.587 20.1643L158.869 28.6786L149.866 37.1999L154.587 20.1643Z" fill="#E5D4FF"/>
<path d="M150.585 20.5518L154.866 29.0661L145.857 37.5874L150.585 20.5518Z" fill="white"/>
<path d="M24.3721 36.6643V21.3916H34.1562V23.7108H27.1388V27.8571H33.485V30.1764H27.1388V36.6643H24.3721ZM36.7309 36.6643H33.7777L39.1545 21.3916H42.57L47.9542 36.6643H45.0011L40.9219 24.5237H40.8026L36.7309 36.6643ZM36.8278 30.676H44.8818V32.8983H36.8278V30.676ZM55.1413 36.6643H49.9659V21.3916H55.2457C56.762 21.3916 58.0646 21.6973 59.1534 22.3088C60.2471 22.9154 61.0873 23.7879 61.674 24.9264C62.2606 26.0649 62.5539 27.4271 62.5539 29.013C62.5539 30.6039 62.2581 31.9711 61.6665 33.1146C61.0799 34.2581 60.2322 35.1355 59.1235 35.747C58.0198 36.3586 56.6924 36.6643 55.1413 36.6643ZM52.7326 34.2705H55.0071C56.071 34.2705 56.9584 34.0766 57.6693 33.6888C58.3803 33.2961 58.9147 32.7119 59.2727 31.9363C59.6306 31.1558 59.8096 30.1814 59.8096 29.013C59.8096 27.8447 59.6306 26.8752 59.2727 26.1046C58.9147 25.3291 58.3853 24.7499 57.6843 24.3671C56.9882 23.9793 56.1232 23.7854 55.0891 23.7854H52.7326V34.2705ZM63.2773 21.3916H66.4019L70.1381 28.148H70.2872L74.0234 21.3916H77.148L71.5923 30.9669V36.6643H68.8331V30.9669L63.2773 21.3916Z" fill="white"/>
<path d="M106.372 36.1643V20.8916H112.099C113.273 20.8916 114.257 21.1103 115.053 21.5478C115.853 21.9853 116.457 22.5869 116.865 23.3525C117.277 24.1132 117.484 24.9782 117.484 25.9477C117.484 26.9271 117.277 27.7971 116.865 28.5578C116.452 29.3184 115.843 29.9175 115.038 30.355C114.232 30.7875 113.24 31.0038 112.062 31.0038H108.266V28.7293H111.689C112.375 28.7293 112.937 28.61 113.375 28.3713C113.812 28.1327 114.135 27.8046 114.344 27.387C114.558 26.9693 114.665 26.4896 114.665 25.9477C114.665 25.4058 114.558 24.9285 114.344 24.5159C114.135 24.1032 113.81 23.7826 113.367 23.5539C112.93 23.3202 112.365 23.2034 111.674 23.2034H109.139V36.1643H106.372ZM120.146 36.1643H117.193L122.57 20.8916H125.985L131.369 36.1643H128.416L124.337 24.0237H124.218L120.146 36.1643ZM120.243 30.176H128.297V32.3983H120.243V30.176ZM130.778 20.8916H133.903L137.639 27.648H137.788L141.524 20.8916H144.649L139.093 30.4669V36.1643H136.334V30.4669L130.778 20.8916Z" fill="#E5D4FF"/>
</g>
<defs>
<clipPath id="clip0_338_321">
<rect width="180" height="55" fill="white"/>
</clipPath>
</defs>
</svg>
