<svg width="53" height="50" viewBox="0 0 53 50" fill="none" xmlns="http://www.w3.org/2000/svg">
<path d="M19.875 21.875L24.2916 26.0417L34.2291 16.6667M44.1666 43.75V16.25C44.1666 12.7497 44.1666 10.9995 43.4446 9.66256C42.8094 8.48655 41.7959 7.53042 40.5493 6.93121C39.1322 6.25 37.277 6.25 33.5666 6.25H19.4333C15.723 6.25 13.8678 6.25 12.4506 6.93121C11.2041 7.53042 10.1906 8.48655 9.55539 9.66256C8.83331 10.9995 8.83331 12.7497 8.83331 16.25V43.75L14.9062 39.5833L20.4271 43.75L26.5 39.5833L32.5729 43.75L38.0937 39.5833L44.1666 43.75Z" stroke="white" stroke-width="5" stroke-linecap="round" stroke-linejoin="round"/>
</svg>
