<svg width="25" height="25" viewBox="0 0 25 25" fill="none" xmlns="http://www.w3.org/2000/svg">
<g clip-path="url(#clip0_280_413)">
<g clip-path="url(#clip1_280_413)">
<g clip-path="url(#clip2_280_413)">
<path d="M12.6922 2.18512C15.8706 2.18512 16.2679 2.18512 17.5591 2.28446C20.8368 2.38378 22.3267 3.97296 22.426 7.15133C22.5253 8.44254 22.5253 8.74051 22.5253 11.9189C22.5253 15.0973 22.5253 15.4945 22.426 16.6864C22.3267 19.8648 20.7375 21.454 17.5591 21.5533C16.2679 21.6527 15.9699 21.6527 12.6922 21.6527C9.51389 21.6527 9.11659 21.6527 7.92471 21.5533C4.64701 21.454 3.15715 19.8648 3.05783 16.6864C2.9585 15.3953 2.9585 15.0973 2.9585 11.9189C2.9585 8.74051 2.9585 8.34322 3.05783 7.15133C3.15715 3.97296 4.74633 2.38378 7.92471 2.28446C9.11659 2.18512 9.51389 2.18512 12.6922 2.18512ZM12.6922 0C9.41457 0 9.01726 0 7.82538 0.0993237C3.45513 0.297972 1.07135 2.68175 0.8727 7.05201C0.773376 8.2439 0.773376 8.64119 0.773376 11.9189C0.773376 15.1966 0.773376 15.5938 0.8727 16.7857C1.07135 21.156 3.45513 23.5398 7.82538 23.7385C9.01726 23.8378 9.41457 23.8378 12.6922 23.8378C15.9699 23.8378 16.3673 23.8378 17.5591 23.7385C21.9293 23.5398 24.3131 21.156 24.5118 16.7857C24.6111 15.5938 24.6111 15.1966 24.6111 11.9189C24.6111 8.64119 24.6111 8.2439 24.5118 7.05201C24.3131 2.68175 21.9293 0.297972 17.5591 0.0993237C16.3673 0 15.9699 0 12.6922 0ZM12.6922 5.76079C9.31524 5.76079 6.53417 8.54187 6.53417 11.9189C6.53417 15.2959 9.31524 18.077 12.6922 18.077C16.0693 18.077 18.8503 15.2959 18.8503 11.9189C18.8503 8.54187 16.0693 5.76079 12.6922 5.76079ZM12.6922 15.8918C10.5071 15.8918 8.7193 14.104 8.7193 11.9189C8.7193 9.73378 10.5071 7.94592 12.6922 7.94592C14.8774 7.94592 16.6652 9.73378 16.6652 11.9189C16.6652 14.104 14.8774 15.8918 12.6922 15.8918ZM19.049 4.17161C18.2544 4.17161 17.6584 4.76755 17.6584 5.56215C17.6584 6.35673 18.2544 6.95268 19.049 6.95268C19.8435 6.95268 20.4395 6.35673 20.4395 5.56215C20.4395 4.76755 19.8435 4.17161 19.049 4.17161Z" fill="white"/>
</g>
</g>
</g>
<defs>
<clipPath id="clip0_280_413">
<rect width="25" height="24.03" fill="white"/>
</clipPath>
<clipPath id="clip1_280_413">
<rect width="25" height="24.03" fill="white"/>
</clipPath>
<clipPath id="clip2_280_413">
<rect width="24.9912" height="24.03" fill="white" transform="translate(0.00439453)"/>
</clipPath>
</defs>
</svg>
