<svg width="24" height="24" viewBox="0 0 24 24" fill="none" xmlns="http://www.w3.org/2000/svg">
<g clip-path="url(#clip0_316_299)">
<path fill-rule="evenodd" clip-rule="evenodd" d="M16.8424 6.54769C15.6034 5.36599 13.9499 4.72223 12.2391 4.74868C9.10845 4.74868 6.44963 6.86074 5.50161 9.70474V9.7048C4.99895 11.1952 4.99895 12.809 5.50161 14.2993H5.50601C6.45843 17.1389 9.11285 19.251 12.2435 19.251C13.8595 19.251 15.2469 18.8376 16.3221 18.1076V18.1046C17.5876 17.2668 18.4518 15.9484 18.7208 14.4581H12.2391V9.8371H23.5579C23.699 10.6396 23.7651 11.4597 23.7651 12.2755C23.7651 15.9253 22.4607 19.0111 20.1911 21.1011L20.1935 21.1029C18.2049 22.9372 15.4755 23.9998 12.2391 23.9998C7.70186 23.9998 3.55268 21.4424 1.51556 17.3903V17.3902C-0.186426 13.9995 -0.186422 10.0046 1.51558 6.61386H1.5156L1.51556 6.61383C3.55268 2.55725 7.70186 -0.000167897 12.2391 -0.000167897C15.2198 -0.0354426 18.0991 1.08453 20.2685 3.12164L16.8424 6.54769Z" fill="white"/>
</g>
<defs>
<clipPath id="clip0_316_299">
<rect width="24" height="24" fill="white"/>
</clipPath>
</defs>
</svg>
