<svg width="94" height="29" viewBox="0 0 94 29" fill="none" xmlns="http://www.w3.org/2000/svg">
<path d="M12.4551 1.84766C13.7051 1.82813 14.7305 2.05273 15.5312 2.52148C16.3516 2.99023 17.0156 3.54688 17.5234 4.19141C18.0312 4.83594 18.4219 5.49023 18.6953 6.1543C18.9688 6.79883 19.1836 7.30664 19.3398 7.67773C19.3789 7.77539 19.457 7.90234 19.5742 8.05859C19.6719 8.19531 19.8086 8.36133 19.9844 8.55664C20.1797 8.73242 20.4238 8.9375 20.7168 9.17188C20.1113 9.19141 19.5742 9.21094 19.1055 9.23047C18.6367 9.23047 18.2363 9.24023 17.9043 9.25977C17.5332 9.2793 17.2012 9.29883 16.9082 9.31836C16.6152 9.33789 16.2539 9.36719 15.8242 9.40625C15.4336 9.44531 14.9551 9.48438 14.3887 9.52344C13.8223 9.5625 13.1289 9.62109 12.3086 9.69922C12.7969 9.11328 13.1777 8.5957 13.4512 8.14648C13.7441 7.67773 13.959 7.26758 14.0957 6.91602C14.252 6.54492 14.3398 6.22266 14.3594 5.94922C14.3984 5.67578 14.3887 5.44141 14.3301 5.24609C14.2129 4.79687 13.9102 4.47461 13.4219 4.2793C12.0156 3.88867 10.7852 4.20117 9.73047 5.2168C8.69531 6.21289 7.95312 7.85352 7.50391 10.1387C7.28906 11.2715 7.08398 12.4531 6.88867 13.6836C6.71289 14.8945 6.64453 16.0078 6.68359 17.0234C6.72266 18.0195 6.91797 18.8301 7.26953 19.4551C7.62109 20.0801 8.22656 20.373 9.08594 20.334C9.92578 20.2949 10.6387 20.1582 11.2246 19.9238C11.8105 19.6699 12.2793 19.377 12.6309 19.0449C12.9824 18.6934 13.2266 18.3223 13.3633 17.9316C13.5195 17.5215 13.5781 17.1406 13.5391 16.7891C13.4609 16.5156 13.2559 16.2227 12.9238 15.9102C12.6309 15.6367 12.1914 15.334 11.6055 15.002C11.0195 14.6504 10.1797 14.2891 9.08594 13.918C10.1211 13.8594 10.9707 13.8203 11.6348 13.8008C12.3184 13.7617 12.8555 13.7227 13.2461 13.6836C13.7148 13.6445 14.0762 13.6152 14.3301 13.5957C14.5645 13.5762 14.9062 13.5566 15.3555 13.5371C15.7461 13.5176 16.2441 13.5078 16.8496 13.5078C17.4746 13.5078 18.2559 13.498 19.1934 13.4785C18.8418 13.8301 18.5684 14.1523 18.373 14.4453C18.2754 14.6016 18.1875 14.7383 18.1094 14.8555C18.0312 15.0508 18.002 15.4512 18.0215 16.0566C18.0215 16.5645 18.0605 17.3164 18.1387 18.3125C18.2168 19.2891 18.3633 20.627 18.5781 22.3262L14.6816 22.8535L14.8574 18.8984C14.4082 19.9727 13.8418 20.7734 13.1582 21.3008C12.4941 21.8281 11.8594 22.1992 11.2539 22.4141C10.5312 22.668 9.7793 22.7852 8.99805 22.7656C7.98242 22.668 6.9668 22.4336 5.95117 22.0625C4.93555 21.6914 4.03711 21.125 3.25586 20.3633C2.47461 19.582 1.86914 18.5762 1.43945 17.3457C1.0293 16.1152 0.902344 14.5918 1.05859 12.7754C1.23438 10.959 1.66406 9.37695 2.34766 8.0293C3.05078 6.66211 3.91992 5.5293 4.95508 4.63086C5.99023 3.73242 7.15234 3.05859 8.44141 2.60938C9.75 2.14062 11.0879 1.88672 12.4551 1.84766ZM28.2754 9.875C28.7832 9.875 29.3105 9.97266 29.8574 10.168C30.4043 10.3438 30.9316 10.5781 31.4395 10.8711C31.9473 11.1445 32.4062 11.4473 32.8164 11.7793C33.2461 12.0918 33.5977 12.3945 33.8711 12.6875C34.3594 13.2148 34.6914 13.9277 34.8672 14.8262C35.0625 15.7051 35.1016 16.6133 34.9844 17.5508C34.8672 18.4688 34.5938 19.3379 34.1641 20.1582C33.7344 20.9785 33.1387 21.584 32.377 21.9746C31.8301 22.248 31.293 22.4629 30.7656 22.6191C30.2383 22.7754 29.7305 22.8926 29.2422 22.9707C28.7539 23.0488 28.2949 23.0879 27.8652 23.0879C27.4355 23.0879 27.0645 23.0781 26.752 23.0586C26.166 23.0195 25.5508 22.8145 24.9062 22.4434C24.2812 22.0723 23.6855 21.6133 23.1191 21.0664C22.5723 20.5195 22.1035 19.9238 21.7129 19.2793C21.3223 18.6152 21.0879 17.9902 21.0098 17.4043C20.8926 16.6035 20.873 15.7637 20.9512 14.8848C21.0293 14.0059 21.3125 13.1953 21.8008 12.4531C22.3086 11.7109 23.0703 11.0957 24.0859 10.6074C25.1211 10.1191 26.5176 9.875 28.2754 9.875ZM27.3086 21.2422C27.5234 21.2812 27.8164 21.2324 28.1875 21.0957C28.5586 20.9395 28.9199 20.6953 29.2715 20.3633C29.6426 20.0312 29.9648 19.6113 30.2383 19.1035C30.5312 18.5762 30.707 17.9414 30.7656 17.1992C30.8242 16.4766 30.8242 15.8125 30.7656 15.207C30.7266 14.6016 30.6387 14.0742 30.502 13.625C30.3652 13.1562 30.209 12.7754 30.0332 12.4824C29.8574 12.1895 29.6719 11.9844 29.4766 11.8672C29.1445 11.6914 28.7441 11.5547 28.2754 11.457C27.8066 11.3398 27.4062 11.3594 27.0742 11.5156C26.918 11.5938 26.7227 11.7598 26.4883 12.0137C26.2539 12.2676 26.0195 12.5898 25.7852 12.9805C25.5508 13.3516 25.3359 13.7812 25.1406 14.2695C24.9648 14.7578 24.8379 15.2656 24.7598 15.793C24.6816 16.3203 24.6621 16.8867 24.7012 17.4922C24.7598 18.0977 24.8867 18.6738 25.082 19.2207C25.2773 19.748 25.5508 20.207 25.9023 20.5977C26.2734 20.9688 26.7422 21.1836 27.3086 21.2422ZM44.2422 9.875C44.75 9.875 45.2773 9.97266 45.8242 10.168C46.3711 10.3438 46.8984 10.5781 47.4062 10.8711C47.9141 11.1445 48.373 11.4473 48.7832 11.7793C49.2129 12.0918 49.5645 12.3945 49.8379 12.6875C50.3262 13.2148 50.6582 13.9277 50.834 14.8262C51.0293 15.7051 51.0684 16.6133 50.9512 17.5508C50.834 18.4688 50.5605 19.3379 50.1309 20.1582C49.7012 20.9785 49.1055 21.584 48.3438 21.9746C47.7969 22.248 47.2598 22.4629 46.7324 22.6191C46.2051 22.7754 45.6973 22.8926 45.209 22.9707C44.7207 23.0488 44.2617 23.0879 43.832 23.0879C43.4023 23.0879 43.0312 23.0781 42.7188 23.0586C42.1328 23.0195 41.5176 22.8145 40.873 22.4434C40.248 22.0723 39.6523 21.6133 39.0859 21.0664C38.5391 20.5195 38.0703 19.9238 37.6797 19.2793C37.2891 18.6152 37.0547 17.9902 36.9766 17.4043C36.8594 16.6035 36.8398 15.7637 36.918 14.8848C36.9961 14.0059 37.2793 13.1953 37.7676 12.4531C38.2754 11.7109 39.0371 11.0957 40.0527 10.6074C41.0879 10.1191 42.4844 9.875 44.2422 9.875ZM43.2754 21.2422C43.4902 21.2812 43.7832 21.2324 44.1543 21.0957C44.5254 20.9395 44.8867 20.6953 45.2383 20.3633C45.6094 20.0312 45.9316 19.6113 46.2051 19.1035C46.498 18.5762 46.6738 17.9414 46.7324 17.1992C46.791 16.4766 46.791 15.8125 46.7324 15.207C46.6934 14.6016 46.6055 14.0742 46.4688 13.625C46.332 13.1562 46.1758 12.7754 46 12.4824C45.8242 12.1895 45.6387 11.9844 45.4434 11.8672C45.1113 11.6914 44.7109 11.5547 44.2422 11.457C43.7734 11.3398 43.373 11.3594 43.041 11.5156C42.8848 11.5938 42.6895 11.7598 42.4551 12.0137C42.2207 12.2676 41.9863 12.5898 41.752 12.9805C41.5176 13.3516 41.3027 13.7812 41.1074 14.2695C40.9316 14.7578 40.8047 15.2656 40.7266 15.793C40.6484 16.3203 40.6289 16.8867 40.668 17.4922C40.7266 18.0977 40.8535 18.6738 41.0488 19.2207C41.2441 19.748 41.5176 20.207 41.8691 20.5977C42.2402 20.9688 42.709 21.1836 43.2754 21.2422ZM66.1855 10.5781C66.127 10.1875 66.0781 9.86523 66.0391 9.61133C66 9.33789 65.9609 9.12305 65.9219 8.9668C65.8828 8.77148 65.8535 8.625 65.834 8.52734C65.7949 8.42969 65.7461 8.32227 65.6875 8.20508C65.6484 8.10742 65.5801 7.99023 65.4824 7.85352C65.4043 7.7168 65.3066 7.56055 65.1895 7.38477C65.4434 7.46289 65.6973 7.51172 65.9512 7.53125C66.2246 7.55078 66.4785 7.57031 66.7129 7.58984C66.9668 7.60937 67.2305 7.60937 67.5039 7.58984C67.7773 7.58984 68.0898 7.58008 68.4414 7.56055C68.7539 7.54102 69.125 7.53125 69.5547 7.53125C70.0039 7.51172 70.5117 7.48242 71.0781 7.44336C70.7461 7.52148 70.4629 7.6582 70.2285 7.85352C70.0137 8.0293 69.8281 8.22461 69.6719 8.43945C69.4961 8.67383 69.3496 8.92773 69.2324 9.20117C69.1348 9.45508 69.0762 9.94336 69.0566 10.666C69.0371 11.3691 69.0371 12.209 69.0566 13.1855C69.0762 14.1426 69.0957 15.1777 69.1152 16.291C69.1543 17.4043 69.1738 18.4688 69.1738 19.4844C69.1934 20.5 69.1934 21.4277 69.1738 22.2676C69.1543 23.0879 69.1055 23.6934 69.0273 24.084C68.7539 25.3145 68.2461 26.3105 67.5039 27.0723C66.7617 27.8535 65.7852 28.2734 64.5742 28.332C63.1094 28.3906 61.9473 28.2539 61.0879 27.9219C60.248 27.5898 59.5938 27.1797 59.125 26.6914C58.6562 26.2227 58.3047 25.7441 58.0703 25.2559C57.8359 24.7676 57.5918 24.3965 57.3379 24.1426C57.1035 23.9277 56.8691 23.7227 56.6348 23.5273C56.4199 23.3711 56.1953 23.2148 55.9609 23.0586C55.7461 22.9023 55.5312 22.8047 55.3164 22.7656C55.8828 22.7852 56.3906 22.7949 56.8398 22.7949C57.2891 22.7949 57.6699 22.7949 57.9824 22.7949C58.334 22.7949 58.6465 22.7852 58.9199 22.7656H59.8574H62.5234C62.1328 22.8828 61.8398 23.0098 61.6445 23.1465C61.4492 23.3027 61.3125 23.459 61.2344 23.6152C61.1562 23.791 61.1172 23.9668 61.1172 24.1426C61.1953 24.6113 61.4492 24.9531 61.8789 25.168C62.3086 25.3828 62.8945 25.5098 63.6367 25.5488C64.3594 25.5879 64.8574 25.5684 65.1309 25.4902C65.4043 25.4316 65.6191 25.3145 65.7754 25.1387C66.0879 24.6699 66.3516 24.0645 66.5664 23.3223C66.7227 22.6973 66.8301 21.8867 66.8887 20.8906C66.9668 19.875 66.8789 18.6348 66.625 17.1699C66 18.0293 65.2773 18.6738 64.457 19.1035C63.6367 19.5332 62.8555 19.8457 62.1133 20.041C61.2344 20.2559 60.3457 20.3633 59.4473 20.3633C57.084 20.2656 55.3164 19.7188 54.1445 18.7227C52.9727 17.7266 52.4355 16.3887 52.5332 14.709C52.5918 13.8691 52.8457 13.0293 53.2949 12.1895C53.7637 11.3496 54.3691 10.5977 55.1113 9.93359C55.873 9.26953 56.7422 8.74219 57.7188 8.35156C58.6953 7.96094 59.7109 7.79492 60.7656 7.85352C61.5664 7.93164 62.3184 8.07812 63.0215 8.29297C63.627 8.48828 64.2227 8.76172 64.8086 9.11328C65.4141 9.46484 65.873 9.95312 66.1855 10.5781ZM56.8691 13.5078C56.752 14.2695 56.8008 14.9824 57.0156 15.6465C57.25 16.3105 57.5723 16.8867 57.9824 17.375C58.3926 17.8438 58.8516 18.2148 59.3594 18.4883C59.8672 18.7422 60.3457 18.8594 60.7949 18.8398C61.7324 18.8203 62.543 18.4004 63.2266 17.5801C63.9102 16.7402 64.3203 15.4902 64.457 13.8301C64.5156 13.0098 64.4082 12.3066 64.1348 11.7207C63.8809 11.1152 63.5586 10.627 63.168 10.2559C62.7773 9.88477 62.3672 9.62109 61.9375 9.46484C61.5078 9.30859 61.166 9.24023 60.9121 9.25977C60.5605 9.29883 60.1699 9.40625 59.7402 9.58203C59.3301 9.73828 58.9297 9.98242 58.5391 10.3145C58.1484 10.627 57.7969 11.0469 57.4844 11.5742C57.1914 12.1016 56.9863 12.7461 56.8691 13.5078ZM72.0156 23.8203C72.2109 23.5273 72.3672 23.2539 72.4844 23C72.6016 22.7461 72.6992 22.5312 72.7773 22.3555C72.8555 22.1406 72.9141 21.9453 72.9531 21.7695C72.9727 21.6523 72.9824 21.3105 72.9824 20.7441C72.9824 20.1777 72.9629 19.4648 72.9238 18.6055C72.9043 17.7461 72.875 16.7793 72.8359 15.7051C72.8164 14.6309 72.7773 13.5371 72.7188 12.4238C72.6797 11.3105 72.6309 10.2266 72.5723 9.17188C72.5332 8.11719 72.4941 7.16992 72.4551 6.33008C72.416 5.4707 72.377 4.76758 72.3379 4.2207C72.2988 3.67383 72.2695 3.36133 72.25 3.2832C72.2109 3.16602 72.1426 3.04883 72.0449 2.93164C71.8496 2.69727 71.5176 2.47266 71.0488 2.25781C72.0449 2.00391 72.8066 1.79883 73.334 1.64258C73.6465 1.56445 73.9199 1.48633 74.1543 1.4082C74.3691 1.33008 74.584 1.25195 74.7988 1.17383C74.9746 1.0957 75.1699 1.00781 75.3848 0.910156C75.5996 0.792969 75.7949 0.666016 75.9707 0.529297C75.873 1.0957 75.7949 1.64258 75.7363 2.16992C75.6777 2.69727 75.6289 3.18555 75.5898 3.63477C75.5508 4.14258 75.5312 4.63086 75.5312 5.09961C75.4336 6.05664 75.375 7.10156 75.3555 8.23438C75.3555 9.34766 75.3652 10.4805 75.3848 11.6328C75.4043 12.7852 75.4434 13.9082 75.502 15.002C75.5605 16.0957 75.6191 17.0918 75.6777 17.9902C75.7559 18.8691 75.8242 19.6211 75.8828 20.2461C75.9609 20.8516 76.0195 21.2422 76.0586 21.418C76.1367 21.7109 76.2148 21.9941 76.293 22.2676C76.3711 22.502 76.459 22.7461 76.5566 23C76.6543 23.2734 76.7715 23.4883 76.9082 23.6445H74.0664C73.8125 23.6445 73.5684 23.6543 73.334 23.6738C73.1191 23.6934 72.8945 23.7129 72.6602 23.7324C72.4258 23.752 72.2109 23.7812 72.0156 23.8203ZM85.5801 18.2832C86.127 18.2832 86.6348 18.2246 87.1035 18.1074C87.4941 18.0098 87.8652 17.8535 88.2168 17.6387C88.5879 17.4043 88.832 17.0625 88.9492 16.6133C89.3398 16.6914 89.6719 16.7598 89.9453 16.8184C90.2188 16.8574 90.4531 16.8965 90.6484 16.9355C90.8633 16.9941 91.0488 17.0332 91.2051 17.0527C91.3613 17.0918 91.5469 17.1309 91.7617 17.1699C91.957 17.209 92.1914 17.2578 92.4648 17.3164C92.7578 17.3555 93.0996 17.4141 93.4902 17.4922C93.1973 17.4531 92.8945 17.4824 92.582 17.5801C92.2891 17.6777 92.0059 17.7852 91.7324 17.9023C91.4199 18.0391 91.127 18.2051 90.8535 18.4004C90.6777 18.5176 90.4727 18.6934 90.2383 18.9277C90.0234 19.1621 89.7109 19.3867 89.3008 19.6016C88.8906 19.8164 88.3438 20.002 87.6602 20.1582C86.9961 20.2949 86.1367 20.3438 85.082 20.3047C83.8125 20.2656 82.748 20.041 81.8887 19.6309C81.0293 19.2012 80.3359 18.6836 79.8086 18.0781C79.2812 17.4531 78.9004 16.7793 78.666 16.0566C78.4316 15.334 78.3047 14.6602 78.2852 14.0352C78.2656 13.4102 78.4512 12.7559 78.8418 12.0723C79.2324 11.3887 79.7793 10.7637 80.4824 10.1973C81.2051 9.63086 82.0742 9.17188 83.0898 8.82031C84.1055 8.44922 85.2188 8.26367 86.4297 8.26367C87.1328 8.26367 87.7773 8.35156 88.3633 8.52734C88.9688 8.68359 89.5156 8.89844 90.0039 9.17188C90.5117 9.44531 90.9512 9.75781 91.3223 10.1094C91.6934 10.4414 92.0059 10.7832 92.2598 11.1348C92.5137 11.5059 92.7285 11.8965 92.9043 12.3066C93.0605 12.6582 93.1875 13.0586 93.2852 13.5078C93.3828 13.957 93.4121 14.416 93.373 14.8848C91.8887 14.9238 90.6875 14.9531 89.7695 14.9727C88.8711 14.9922 88.168 15.002 87.6602 15.002H86.3418H85.3457C84.9941 15.002 84.5352 15.0117 83.9688 15.0312C83.4023 15.0508 82.709 15.0801 81.8887 15.1191C81.9863 15.9004 82.2305 16.5059 82.6211 16.9355C83.0312 17.3457 83.4609 17.6582 83.9102 17.873C84.418 18.1074 84.9746 18.2441 85.5801 18.2832ZM82.9434 13.0098C83.5684 13.0488 84.0859 13.0781 84.4961 13.0977C84.9258 13.1172 85.2773 13.1367 85.5508 13.1562C85.8438 13.1758 86.0781 13.1855 86.2539 13.1855H86.9863C87.4746 13.1855 88.3828 13.1562 89.7109 13.0977C89.6523 12.2383 89.4668 11.584 89.1543 11.1348C88.8613 10.6855 88.5488 10.3535 88.2168 10.1387C87.8262 9.9043 87.3965 9.76758 86.9277 9.72852C85.6582 9.74805 84.7109 10.0117 84.0859 10.5195C83.4805 11.0273 83.0996 11.8574 82.9434 13.0098Z" fill="white"/>
</svg>
