<svg width="144" height="25" viewBox="0 0 144 25" fill="none" xmlns="http://www.w3.org/2000/svg">
<path d="M0.292969 1.81445C0.957031 1.89258 1.51367 1.95117 1.96289 1.99023C2.43164 2.00977 2.8125 2.03906 3.10547 2.07812C3.45703 2.11719 3.73047 2.13672 3.92578 2.13672C4.14062 2.15625 4.46289 2.14648 4.89258 2.10742C5.26367 2.06836 5.76172 2.01953 6.38672 1.96094C7.03125 1.90234 7.85156 1.81445 8.84766 1.69727C8.39844 2.08789 8.03711 2.46875 7.76367 2.83984C7.50977 3.19141 7.31445 3.50391 7.17773 3.77734C7.00195 4.10938 6.89453 4.42188 6.85547 4.71484C6.77734 5.18359 6.70898 5.82812 6.65039 6.64844C6.61133 7.44922 6.57227 8.32812 6.5332 9.28516C6.49414 10.2422 6.47461 11.2285 6.47461 12.2441C6.47461 13.2598 6.48438 14.2266 6.50391 15.1445C6.54297 16.043 6.60156 16.8438 6.67969 17.5469C6.77734 18.25 6.89453 18.7578 7.03125 19.0703C7.22656 19.4219 7.43164 19.7734 7.64648 20.125C7.8418 20.418 8.07617 20.7207 8.34961 21.0332C8.62305 21.3457 8.93555 21.5996 9.28711 21.7949C8.13477 21.7363 7.2168 21.707 6.5332 21.707H5.47852C5.16602 21.707 4.76562 21.7266 4.27734 21.7656C3.86719 21.8047 3.34961 21.8438 2.72461 21.8828C2.09961 21.9219 1.34766 21.9805 0.46875 22.0586C0.917969 21.5703 1.26953 21.1016 1.52344 20.6523C1.77734 20.2031 1.98242 19.8125 2.13867 19.4805C2.31445 19.0898 2.43164 18.7188 2.49023 18.3672C2.56836 17.8594 2.62695 17.2344 2.66602 16.4922C2.72461 15.7305 2.76367 14.9199 2.7832 14.0605C2.80273 13.1816 2.80273 12.293 2.7832 11.3945C2.7832 10.4766 2.76367 9.59766 2.72461 8.75781C2.68555 7.91797 2.62695 7.15625 2.54883 6.47266C2.49023 5.78906 2.41211 5.24219 2.31445 4.83203C2.25586 4.57812 2.13867 4.29492 1.96289 3.98242C1.80664 3.70898 1.5918 3.39648 1.31836 3.04492C1.06445 2.67383 0.722656 2.26367 0.292969 1.81445ZM18.3105 0.349609C18.9941 0.349609 19.6094 0.466797 20.1562 0.701172C20.7227 0.916016 21.2402 1.16016 21.709 1.43359C22.1973 1.70703 22.6562 1.96094 23.0859 2.19531C23.5156 2.41016 23.9551 2.51758 24.4043 2.51758C24.7559 2.49805 25.1562 2.44922 25.6055 2.37109C25.9961 2.29297 26.4453 2.17578 26.9531 2.01953C27.4805 1.84375 28.0664 1.58984 28.7109 1.25781C28.0664 1.88281 27.5391 2.41016 27.1289 2.83984C26.7383 3.25 26.4355 3.5918 26.2207 3.86523C25.9668 4.17773 25.7812 4.42188 25.6641 4.59766C25.5469 4.8125 25.3711 5.13477 25.1367 5.56445C24.9219 5.95508 24.6289 6.48242 24.2578 7.14648C23.8867 7.79102 23.418 8.64062 22.8516 9.69531C22.8516 8.34766 22.7148 7.30273 22.4414 6.56055C22.1875 5.81836 21.9043 5.25195 21.5918 4.86133C21.2207 4.41211 20.8008 4.12891 20.332 4.01172C19.9023 3.95312 19.4727 4.03125 19.043 4.24609C18.6133 4.44141 18.1836 4.73438 17.7539 5.125C17.3438 5.51562 16.9434 5.98438 16.5527 6.53125C16.1816 7.05859 15.8398 7.61523 15.5273 8.20117C15.2344 8.78711 14.9902 9.38281 14.7949 9.98828C14.5996 10.5742 14.4727 11.1211 14.4141 11.6289C14.3555 12.0781 14.3457 12.6055 14.3848 13.2109C14.4238 13.7969 14.5117 14.4023 14.6484 15.0273C14.7852 15.6328 14.9609 16.2285 15.1758 16.8145C15.3906 17.4004 15.6543 17.9277 15.9668 18.3965C16.2988 18.8457 16.6699 19.2168 17.0801 19.5098C17.4902 19.7832 17.959 19.9102 18.4863 19.8906C19.0723 19.8516 19.6484 19.6758 20.2148 19.3633C20.7031 19.1094 21.2012 18.7188 21.709 18.1914C22.2168 17.6445 22.6562 16.873 23.0273 15.877L27.3633 16.668C26.1133 18.1914 24.8926 19.334 23.7012 20.0957C22.5293 20.8574 21.4746 21.3945 20.5371 21.707C19.4434 22.0586 18.4082 22.2246 17.4316 22.2051C16.2012 22.0684 15.0488 21.6973 13.9746 21.0918C12.9004 20.4863 11.9727 19.7539 11.1914 18.8945C10.4297 18.0156 9.83398 17.0586 9.4043 16.0234C8.97461 14.9883 8.78906 13.9727 8.84766 12.9766C8.88672 12.3125 9.02344 11.541 9.25781 10.6621C9.49219 9.76367 9.80469 8.8457 10.1953 7.9082C10.6055 6.9707 11.0938 6.05273 11.6602 5.1543C12.2266 4.25586 12.8516 3.45508 13.5352 2.75195C14.2188 2.0293 14.9609 1.45312 15.7617 1.02344C16.582 0.574219 17.4316 0.349609 18.3105 0.349609ZM27.5098 1.81445C28.1738 1.89258 28.7305 1.95117 29.1797 1.99023C29.6484 2.00977 30.0293 2.03906 30.3223 2.07812C30.6738 2.11719 30.9473 2.13672 31.1426 2.13672C31.3574 2.15625 31.6797 2.14648 32.1094 2.10742C32.4805 2.06836 32.9785 2.01953 33.6035 1.96094C34.248 1.90234 35.0684 1.81445 36.0645 1.69727C35.6152 2.08789 35.2539 2.46875 34.9805 2.83984C34.7266 3.19141 34.5312 3.50391 34.3945 3.77734C34.2188 4.10938 34.1113 4.42188 34.0723 4.71484C33.9941 5.18359 33.9258 5.82812 33.8672 6.64844C33.8281 7.44922 33.7891 8.32812 33.75 9.28516C33.7109 10.2422 33.6914 11.2285 33.6914 12.2441C33.6914 13.2598 33.7012 14.2266 33.7207 15.1445C33.7598 16.043 33.8184 16.8438 33.8965 17.5469C33.9941 18.25 34.1113 18.7578 34.248 19.0703C34.4434 19.4219 34.6484 19.7734 34.8633 20.125C35.0586 20.418 35.293 20.7207 35.5664 21.0332C35.8398 21.3457 36.1523 21.5996 36.5039 21.7949C35.3516 21.7363 34.4336 21.707 33.75 21.707H32.6953C32.3828 21.707 31.9824 21.7266 31.4941 21.7656C31.084 21.8047 30.5664 21.8438 29.9414 21.8828C29.3164 21.9219 28.5645 21.9805 27.6855 22.0586C28.1348 21.5703 28.4863 21.1016 28.7402 20.6523C28.9941 20.2031 29.1992 19.8125 29.3555 19.4805C29.5312 19.0898 29.6484 18.7188 29.707 18.3672C29.7852 17.8594 29.8438 17.2344 29.8828 16.4922C29.9414 15.7305 29.9805 14.9199 30 14.0605C30.0195 13.1816 30.0195 12.293 30 11.3945C30 10.4766 29.9805 9.59766 29.9414 8.75781C29.9023 7.91797 29.8438 7.15625 29.7656 6.47266C29.707 5.78906 29.6289 5.24219 29.5312 4.83203C29.4727 4.57812 29.3555 4.29492 29.1797 3.98242C29.0234 3.70898 28.8086 3.39648 28.5352 3.04492C28.2812 2.67383 27.9395 2.26367 27.5098 1.81445ZM45.5273 0.349609C46.2109 0.349609 46.8262 0.466797 47.373 0.701172C47.9395 0.916016 48.457 1.16016 48.9258 1.43359C49.4141 1.70703 49.873 1.96094 50.3027 2.19531C50.7324 2.41016 51.1719 2.51758 51.6211 2.51758C51.9727 2.49805 52.373 2.44922 52.8223 2.37109C53.2129 2.29297 53.6621 2.17578 54.1699 2.01953C54.6973 1.84375 55.2832 1.58984 55.9277 1.25781C55.2832 1.88281 54.7559 2.41016 54.3457 2.83984C53.9551 3.25 53.6523 3.5918 53.4375 3.86523C53.1836 4.17773 52.998 4.42188 52.8809 4.59766C52.7637 4.8125 52.5879 5.13477 52.3535 5.56445C52.1387 5.95508 51.8457 6.48242 51.4746 7.14648C51.1035 7.79102 50.6348 8.64062 50.0684 9.69531C50.0684 8.34766 49.9316 7.30273 49.6582 6.56055C49.4043 5.81836 49.1211 5.25195 48.8086 4.86133C48.4375 4.41211 48.0176 4.12891 47.5488 4.01172C47.1191 3.95312 46.6895 4.03125 46.2598 4.24609C45.8301 4.44141 45.4004 4.73438 44.9707 5.125C44.5605 5.51562 44.1602 5.98438 43.7695 6.53125C43.3984 7.05859 43.0566 7.61523 42.7441 8.20117C42.4512 8.78711 42.207 9.38281 42.0117 9.98828C41.8164 10.5742 41.6895 11.1211 41.6309 11.6289C41.5723 12.0781 41.5625 12.6055 41.6016 13.2109C41.6406 13.7969 41.7285 14.4023 41.8652 15.0273C42.002 15.6328 42.1777 16.2285 42.3926 16.8145C42.6074 17.4004 42.8711 17.9277 43.1836 18.3965C43.5156 18.8457 43.8867 19.2168 44.2969 19.5098C44.707 19.7832 45.1758 19.9102 45.7031 19.8906C46.2891 19.8516 46.8652 19.6758 47.4316 19.3633C47.9199 19.1094 48.418 18.7188 48.9258 18.1914C49.4336 17.6445 49.873 16.873 50.2441 15.877L54.5801 16.668C53.3301 18.1914 52.1094 19.334 50.918 20.0957C49.7461 20.8574 48.6914 21.3945 47.7539 21.707C46.6602 22.0586 45.625 22.2246 44.6484 22.2051C43.418 22.0684 42.2656 21.6973 41.1914 21.0918C40.1172 20.4863 39.1895 19.7539 38.4082 18.8945C37.6465 18.0156 37.0508 17.0586 36.6211 16.0234C36.1914 14.9883 36.0059 13.9727 36.0645 12.9766C36.1035 12.3125 36.2402 11.541 36.4746 10.6621C36.709 9.76367 37.0215 8.8457 37.4121 7.9082C37.8223 6.9707 38.3105 6.05273 38.877 5.1543C39.4434 4.25586 40.0684 3.45508 40.752 2.75195C41.4355 2.0293 42.1777 1.45312 42.9785 1.02344C43.7988 0.574219 44.6484 0.349609 45.5273 0.349609ZM54.7266 1.81445C55.3906 1.89258 55.9473 1.95117 56.3965 1.99023C56.8652 2.00977 57.2461 2.03906 57.5391 2.07812C57.8906 2.11719 58.1641 2.13672 58.3594 2.13672C58.5742 2.15625 58.8965 2.14648 59.3262 2.10742C59.6973 2.06836 60.1953 2.01953 60.8203 1.96094C61.4648 1.90234 62.2852 1.81445 63.2812 1.69727C62.832 2.08789 62.4707 2.46875 62.1973 2.83984C61.9434 3.19141 61.748 3.50391 61.6113 3.77734C61.4355 4.10938 61.3281 4.42188 61.2891 4.71484C61.2109 5.18359 61.1426 5.82812 61.084 6.64844C61.0449 7.44922 61.0059 8.32812 60.9668 9.28516C60.9277 10.2422 60.9082 11.2285 60.9082 12.2441C60.9082 13.2598 60.918 14.2266 60.9375 15.1445C60.9766 16.043 61.0352 16.8438 61.1133 17.5469C61.2109 18.25 61.3281 18.7578 61.4648 19.0703C61.6602 19.4219 61.8652 19.7734 62.0801 20.125C62.2754 20.418 62.5098 20.7207 62.7832 21.0332C63.0566 21.3457 63.3691 21.5996 63.7207 21.7949C62.5684 21.7363 61.6504 21.707 60.9668 21.707H59.9121C59.5996 21.707 59.1992 21.7266 58.7109 21.7656C58.3008 21.8047 57.7832 21.8438 57.1582 21.8828C56.5332 21.9219 55.7812 21.9805 54.9023 22.0586C55.3516 21.5703 55.7031 21.1016 55.957 20.6523C56.2109 20.2031 56.416 19.8125 56.5723 19.4805C56.748 19.0898 56.8652 18.7188 56.9238 18.3672C57.002 17.8594 57.0605 17.2344 57.0996 16.4922C57.1582 15.7305 57.1973 14.9199 57.2168 14.0605C57.2363 13.1816 57.2363 12.293 57.2168 11.3945C57.2168 10.4766 57.1973 9.59766 57.1582 8.75781C57.1191 7.91797 57.0605 7.15625 56.9824 6.47266C56.9238 5.78906 56.8457 5.24219 56.748 4.83203C56.6895 4.57812 56.5723 4.29492 56.3965 3.98242C56.2402 3.70898 56.0254 3.39648 55.752 3.04492C55.498 2.67383 55.1562 2.26367 54.7266 1.81445ZM73.0371 1.05273C73.6621 1.20898 74.2578 1.32617 74.8242 1.4043C75.3906 1.48242 75.8887 1.54102 76.3184 1.58008C76.8262 1.63867 77.2949 1.6582 77.7246 1.63867C78.2715 1.63867 78.9551 1.58984 79.7754 1.49219C80.6152 1.39453 81.4746 1.30664 82.3535 1.22852C83.2324 1.13086 84.0723 1.07227 84.873 1.05273C85.6934 1.01367 86.3574 1.0625 86.8652 1.19922C87.373 1.31641 87.8906 1.50195 88.418 1.75586C88.9648 1.99023 89.4629 2.29297 89.9121 2.66406C90.3613 3.01562 90.7324 3.43555 91.0254 3.92383C91.3184 4.39258 91.4844 4.92969 91.5234 5.53516C91.5039 6.29688 91.3281 7.00977 90.9961 7.67383C90.7227 8.24023 90.2637 8.82617 89.6191 9.43164C88.9746 10.0176 88.0469 10.4668 86.8359 10.7793C87.4414 10.8574 87.959 10.9941 88.3887 11.1895C88.8379 11.3652 89.2188 11.5801 89.5312 11.834C89.8633 12.0684 90.127 12.332 90.3223 12.625C90.5371 12.918 90.7031 13.2109 90.8203 13.5039C91.1133 14.1875 91.25 14.9492 91.2305 15.7891C91.1133 16.8828 90.8887 17.752 90.5566 18.3965C90.2441 19.041 89.8828 19.5391 89.4727 19.8906C89.0625 20.2422 88.6426 20.4863 88.2129 20.623C87.7832 20.7598 87.3926 20.8672 87.041 20.9453C86.6895 21.0234 86.2598 21.0625 85.752 21.0625C85.2441 21.0625 84.6973 21.0527 84.1113 21.0332C83.5449 20.9941 82.959 20.9648 82.3535 20.9453C81.748 20.9062 81.1719 20.9062 80.625 20.9453C80.1758 20.9844 79.6289 21.0234 78.9844 21.0625C78.4375 21.1016 77.7539 21.1504 76.9336 21.209C76.1133 21.248 75.1562 21.2969 74.0625 21.3555C74.2773 21.1992 74.4531 21.0234 74.5898 20.8281C74.7461 20.6133 74.873 20.4277 74.9707 20.2715C75.0684 20.0762 75.1562 19.8906 75.2344 19.7148C75.293 19.5586 75.3418 19.1289 75.3809 18.4258C75.4199 17.7227 75.4492 16.8828 75.4688 15.9062C75.4883 14.9102 75.498 13.8457 75.498 12.7129C75.5176 11.5605 75.5078 10.457 75.4688 9.40234C75.4492 8.32812 75.4102 7.38086 75.3516 6.56055C75.3125 5.7207 75.2539 5.11523 75.1758 4.74414C75.0586 4.33398 74.9023 3.91406 74.707 3.48438C74.5508 3.11328 74.3262 2.71289 74.0332 2.2832C73.7598 1.85352 73.4277 1.44336 73.0371 1.05273ZM79.2188 4.04102C79.2188 4.11914 79.2285 4.38281 79.248 4.83203C79.2676 5.22266 79.2871 5.82812 79.3066 6.64844C79.3457 7.44922 79.3945 8.5918 79.4531 10.0762C79.9414 10.291 80.4199 10.4082 80.8887 10.4277C81.3574 10.4277 81.7773 10.4082 82.1484 10.3691C82.5781 10.3105 82.9883 10.2129 83.3789 10.0762C83.9062 9.86133 84.3164 9.50977 84.6094 9.02148C84.9219 8.5332 85.127 8.02539 85.2246 7.49805C85.3418 6.95117 85.3711 6.44336 85.3125 5.97461C85.2539 5.48633 85.127 5.13477 84.9316 4.91992C84.5605 4.58789 84.1016 4.31445 83.5547 4.09961C83.0859 3.92383 82.4902 3.80664 81.7676 3.74805C81.0645 3.66992 80.2148 3.76758 79.2188 4.04102ZM79.0723 17.9277C79.7949 18.2988 80.4297 18.543 80.9766 18.6602C81.5234 18.7773 81.9824 18.8359 82.3535 18.8359C82.7832 18.8359 83.1543 18.7773 83.4668 18.6602C83.8379 18.4844 84.1992 18.25 84.5508 17.957C84.9219 17.6445 85.1953 17.2832 85.3711 16.873C85.5664 16.4434 85.6445 15.9746 85.6055 15.4668C85.5664 14.9395 85.3418 14.3633 84.9316 13.7383C84.5605 13.2891 84.1113 12.9375 83.584 12.6836C83.1152 12.4688 82.5195 12.332 81.7969 12.2734C81.0938 12.2148 80.2246 12.3809 79.1895 12.7715L79.0723 17.9277ZM95.0684 10.1348C95.166 10.0176 95.2246 9.80273 95.2441 9.49023C95.2832 9.1582 95.3613 8.78711 95.4785 8.37695C95.6152 7.9668 95.8398 7.53711 96.1523 7.08789C96.4648 6.63867 96.9727 6.21875 97.6758 5.82812C98.3594 5.4375 99.0234 5.20312 99.668 5.125C100.312 5.04688 100.928 5.07617 101.514 5.21289C102.1 5.34961 102.646 5.56445 103.154 5.85742C103.682 6.15039 104.16 6.47266 104.59 6.82422C104.883 7.05859 105.117 7.40039 105.293 7.84961C105.469 8.2793 105.605 8.76758 105.703 9.31445C105.801 9.86133 105.869 10.4375 105.908 11.043C105.967 11.6289 106.006 12.2051 106.025 12.7715C106.045 13.3184 106.055 13.8262 106.055 14.2949C106.074 14.7441 106.113 15.1152 106.172 15.4082C106.25 15.8379 106.387 16.209 106.582 16.5215C106.777 16.8145 106.992 17.0684 107.227 17.2832C107.461 17.4785 107.695 17.6348 107.93 17.752C108.164 17.8691 108.369 17.957 108.545 18.0156C108.662 18.0742 108.77 18.1133 108.867 18.1328C109.062 18.2109 109.199 18.2109 109.277 18.1328C109.16 18.4062 109.053 18.6406 108.955 18.8359C108.857 19.0312 108.779 19.1973 108.721 19.334C108.643 19.4902 108.574 19.6172 108.516 19.7148C108.457 19.832 108.389 19.9395 108.311 20.0371C108.252 20.1348 108.174 20.2422 108.076 20.3594C107.979 20.4766 107.881 20.6035 107.783 20.7402C107.529 20.6426 107.285 20.5254 107.051 20.3887C106.836 20.252 106.641 20.125 106.465 20.0078C106.25 19.8711 106.055 19.7344 105.879 19.5977C105.703 19.4609 105.537 19.3047 105.381 19.1289C105.244 18.9727 105.098 18.8066 104.941 18.6309C104.805 18.4551 104.688 18.2598 104.59 18.0449C104.473 18.2988 104.189 18.6602 103.74 19.1289C103.311 19.5977 102.744 20.0273 102.041 20.418C101.338 20.7891 100.518 21.0527 99.5801 21.209C98.6621 21.3652 97.6465 21.2578 96.5332 20.8867C96.0449 20.7305 95.5859 20.5059 95.1562 20.2129C94.7266 19.9004 94.3555 19.5293 94.043 19.0996C93.75 18.6699 93.5352 18.1816 93.3984 17.6348C93.2812 17.0684 93.291 16.4434 93.4277 15.7598C93.5645 15.0762 93.8086 14.5 94.1602 14.0312C94.5117 13.5625 94.9316 13.1816 95.4199 12.8887C95.9082 12.5957 96.4551 12.3711 97.0605 12.2148C97.666 12.0586 98.291 11.9512 98.9355 11.8926C99.4434 11.873 99.9512 11.9023 100.459 11.9805C100.889 12.0586 101.338 12.2051 101.807 12.4199C102.275 12.6152 102.676 12.918 103.008 13.3281C102.988 12.293 102.949 11.4727 102.891 10.8672C102.852 10.2422 102.812 9.76367 102.773 9.43164C102.695 9.04102 102.627 8.76758 102.568 8.61133C102.471 8.47461 102.363 8.31836 102.246 8.14258C102.148 7.9668 102.021 7.81055 101.865 7.67383C101.709 7.51758 101.514 7.39062 101.279 7.29297C101.045 7.19531 100.771 7.15625 100.459 7.17578C100.127 7.19531 99.8633 7.2832 99.668 7.43945C99.4727 7.5957 99.3164 7.78125 99.1992 7.99609C99.1016 8.19141 99.043 8.40625 99.0234 8.64062C99.0039 8.875 99.0137 9.08008 99.0527 9.25586C99.0918 9.37305 99.1504 9.5 99.2285 9.63672C99.3066 9.75391 99.4141 9.88086 99.5508 10.0176C99.6875 10.1543 99.873 10.2715 100.107 10.3691C99.6582 10.4277 99.2578 10.4766 98.9062 10.5156C98.5547 10.5352 98.252 10.5645 97.998 10.6035C97.7051 10.6426 97.4512 10.6719 97.2363 10.6914C97.0215 10.7109 96.7676 10.75 96.4746 10.8086C96.2207 10.8477 95.9082 10.8965 95.5371 10.9551C95.166 11.0137 94.7363 11.0918 94.248 11.1895C94.3652 11.0527 94.4727 10.9258 94.5703 10.8086C94.668 10.6719 94.7559 10.5547 94.834 10.457C94.9121 10.3398 94.9902 10.2324 95.0684 10.1348ZM99.4629 13.6211C99.1113 13.6406 98.7598 13.7285 98.4082 13.8848C98.0566 14.0215 97.7441 14.2266 97.4707 14.5C97.1973 14.7539 96.9629 15.0566 96.7676 15.4082C96.5918 15.7402 96.5039 16.1113 96.5039 16.5215C96.5039 16.9316 96.6016 17.293 96.7969 17.6055C97.0117 17.8984 97.2852 18.1426 97.6172 18.3379C97.9688 18.5332 98.3398 18.6504 98.7305 18.6895C99.1406 18.7285 99.541 18.6895 99.9316 18.5723C100.303 18.4355 100.654 18.2207 100.986 17.9277C101.318 17.6152 101.602 17.2832 101.836 16.9316C102.07 16.5605 102.236 16.1992 102.334 15.8477C102.432 15.4766 102.441 15.1738 102.363 14.9395C102.207 14.4316 101.855 14.0801 101.309 13.8848C100.762 13.6699 100.146 13.582 99.4629 13.6211ZM109.893 18.7773C110.029 18.1328 110.127 17.5664 110.186 17.0781C110.264 16.5703 110.322 16.1504 110.361 15.8184C110.4 15.4277 110.42 15.0957 110.42 14.8223C110.4 14.4902 110.381 14.0996 110.361 13.6504C110.361 13.1816 110.342 12.7227 110.303 12.2734C110.283 11.8047 110.254 11.3945 110.215 11.043C110.176 10.6719 110.127 10.4082 110.068 10.252C109.99 10.0957 109.883 9.92969 109.746 9.75391C109.473 9.42188 109.072 9.09961 108.545 8.78711C108.994 8.68945 109.375 8.61133 109.688 8.55273C110.02 8.47461 110.293 8.40625 110.508 8.34766C110.742 8.26953 110.947 8.20117 111.123 8.14258C111.279 8.08398 111.465 8.02539 111.68 7.9668C111.855 7.92773 112.07 7.87891 112.324 7.82031C112.578 7.76172 112.871 7.69336 113.203 7.61523L113.115 10.2812C113.74 9.53906 114.375 8.98242 115.02 8.61133C115.664 8.24023 116.27 7.97656 116.836 7.82031C117.48 7.625 118.115 7.52734 118.74 7.52734C119.521 7.56641 120.244 7.69336 120.908 7.9082C121.592 8.12305 122.178 8.37695 122.666 8.66992C123.174 8.94336 123.584 9.23633 123.896 9.54883C124.209 9.86133 124.395 10.1348 124.453 10.3691C124.688 11.1309 124.746 11.834 124.629 12.4785C124.512 13.1035 124.355 13.7188 124.16 14.3242C123.984 14.9102 123.828 15.4961 123.691 16.082C123.574 16.668 123.623 17.3027 123.838 17.9863C123.916 18.1621 123.994 18.3379 124.072 18.5137C124.15 18.6699 124.248 18.8262 124.365 18.9824C124.482 19.1387 124.619 19.2656 124.775 19.3633C124.561 19.3438 124.346 19.334 124.131 19.334C123.916 19.3145 123.721 19.2949 123.545 19.2754C123.33 19.2559 123.135 19.2363 122.959 19.2168C122.764 19.1973 122.5 19.1875 122.168 19.1875C121.602 19.1875 120.723 19.2168 119.531 19.2754C119.707 18.8652 119.844 18.5234 119.941 18.25C120.059 17.957 120.156 17.7227 120.234 17.5469C120.312 17.332 120.371 17.166 120.41 17.0488C120.645 16.4824 120.781 15.8379 120.82 15.1152C120.879 14.3926 120.83 13.6602 120.674 12.918C120.615 12.6641 120.518 12.3613 120.381 12.0098C120.244 11.6582 120.059 11.3164 119.824 10.9844C119.609 10.6523 119.346 10.3691 119.033 10.1348C118.74 9.90039 118.398 9.76367 118.008 9.72461C117.617 9.68555 117.178 9.7832 116.689 10.0176C116.221 10.252 115.713 10.6816 115.166 11.3066C114.756 11.834 114.434 12.4785 114.199 13.2402C113.984 13.8848 113.838 14.6953 113.76 15.6719C113.682 16.6289 113.799 17.752 114.111 19.041C113.838 19.002 113.584 18.9824 113.35 18.9824C113.115 18.9629 112.92 18.9434 112.764 18.9238C112.568 18.9043 112.393 18.8848 112.236 18.8652C112.061 18.8652 111.865 18.8555 111.65 18.8359C111.455 18.8359 111.211 18.8359 110.918 18.8359C110.625 18.8164 110.283 18.7969 109.893 18.7773ZM126.27 0.876953C126.484 0.974609 126.738 1.04297 127.031 1.08203C127.344 1.12109 127.637 1.14062 127.91 1.14062C128.242 1.14062 128.584 1.13086 128.936 1.11133C129.287 1.0918 129.717 1.05273 130.225 0.994141C130.635 0.955078 131.143 0.90625 131.748 0.847656C132.354 0.789062 133.027 0.710938 133.77 0.613281C133.496 0.75 133.262 0.896484 133.066 1.05273C132.871 1.20898 132.705 1.36523 132.568 1.52148C132.412 1.69727 132.285 1.87305 132.188 2.04883C132.051 2.2832 131.865 2.69336 131.631 3.2793C131.416 3.8457 131.191 4.48047 130.957 5.18359C130.742 5.88672 130.547 6.59961 130.371 7.32227C130.215 8.04492 130.127 8.66016 130.107 9.16797C130.088 9.59766 130.068 10.0859 130.049 10.6328C130.029 11.1016 130.01 11.6777 129.99 12.3613C129.971 13.0449 129.951 13.8262 129.932 14.7051C131.338 13.6895 132.422 12.8789 133.184 12.2734C133.945 11.6484 134.502 11.1699 134.854 10.8379C135.264 10.4668 135.508 10.2031 135.586 10.0469C135.566 9.92969 135.518 9.80273 135.439 9.66602C135.342 9.54883 135.205 9.41211 135.029 9.25586C134.854 9.09961 134.59 8.92383 134.238 8.72852C134.746 8.78711 135.186 8.82617 135.557 8.8457C135.947 8.86523 136.279 8.88477 136.553 8.9043C136.865 8.92383 137.139 8.92383 137.373 8.9043C137.627 8.9043 137.939 8.89453 138.311 8.875C138.955 8.85547 139.951 8.82617 141.299 8.78711C139.99 9.4707 138.955 10.0566 138.193 10.5449C137.764 10.8184 137.383 11.0723 137.051 11.3066C136.719 11.5605 136.377 11.8242 136.025 12.0977C135.713 12.332 135.352 12.6055 134.941 12.918C134.551 13.2305 134.16 13.5625 133.77 13.9141C134.453 15.0273 135.049 15.9453 135.557 16.668C136.084 17.3906 136.523 17.9766 136.875 18.4258C137.285 18.9531 137.646 19.373 137.959 19.6855C138.271 19.9785 138.682 20.3105 139.189 20.6816C139.619 21.0137 140.176 21.4043 140.859 21.8535C141.562 22.2832 142.412 22.7812 143.408 23.3477C142.9 23.25 142.412 23.1816 141.943 23.1426C141.475 23.123 141.074 23.123 140.742 23.1426C140.332 23.1621 139.961 23.2012 139.629 23.2598C139.277 23.3379 138.887 23.4355 138.457 23.5527C138.086 23.6504 137.646 23.7773 137.139 23.9336C136.65 24.1094 136.113 24.334 135.527 24.6074C135.898 24.334 136.172 24.0703 136.348 23.8164C136.543 23.582 136.68 23.3867 136.758 23.2305C136.836 23.0352 136.865 22.8691 136.846 22.7324C136.748 22.5371 136.523 22.1367 136.172 21.5312C135.84 21.0234 135.352 20.2812 134.707 19.3047C134.062 18.3281 133.145 17 131.953 15.3203C131.895 15.3398 131.797 15.3984 131.66 15.4961C131.543 15.5938 131.367 15.7305 131.133 15.9062C130.898 16.0625 130.586 16.2969 130.195 16.6094L130.986 21.7363C130.811 21.8145 130.615 21.8828 130.4 21.9414C130.205 22 130.02 22.0488 129.844 22.0879C129.629 22.1465 129.414 22.1855 129.199 22.2051C128.984 22.2246 128.73 22.2637 128.438 22.3223C128.184 22.3613 127.881 22.4102 127.529 22.4688C127.178 22.5469 126.777 22.6348 126.328 22.7324C126.582 22.5566 126.787 22.3516 126.943 22.1172C127.1 21.9023 127.227 21.6973 127.324 21.502C127.422 21.2871 127.51 21.0625 127.588 20.8281C127.627 20.6328 127.666 20.125 127.705 19.3047C127.764 18.4844 127.812 17.5078 127.852 16.375C127.891 15.2227 127.92 13.9922 127.939 12.6836C127.979 11.375 127.998 10.1445 127.998 8.99219C127.998 7.82031 127.988 6.80469 127.969 5.94531C127.949 5.06641 127.91 4.5 127.852 4.24609C127.754 3.93359 127.637 3.60156 127.5 3.25C127.383 2.9375 127.217 2.58594 127.002 2.19531C126.807 1.78516 126.562 1.3457 126.27 0.876953Z" fill="white"/>
</svg>
