<svg width="25" height="22" viewBox="0 0 25 22" fill="none" xmlns="http://www.w3.org/2000/svg">
<g clip-path="url(#clip0_280_409)">
<g clip-path="url(#clip1_280_409)">
<g clip-path="url(#clip2_280_409)">
<path d="M7.79938 20.2619C17.1583 20.2619 22.2764 12.5082 22.2764 5.78498C22.2764 5.56469 22.2719 5.34552 22.2617 5.1272C23.2551 4.40907 24.1188 3.51266 24.8 2.49272C23.8884 2.89776 22.9073 3.17052 21.8781 3.2935C22.9285 2.66365 23.7352 1.66683 24.1157 0.478771C23.1324 1.0618 22.0437 1.48546 20.8849 1.71393C19.9561 0.725014 18.6338 0.106445 17.1707 0.106445C14.3605 0.106445 12.0817 2.38525 12.0817 5.19405C12.0817 5.59346 12.1265 5.98158 12.2134 6.35419C7.98498 6.14179 4.23521 4.11685 1.72596 1.03839C1.28847 1.79009 1.03659 2.66393 1.03659 3.59559C1.03659 5.36075 1.93497 6.91916 3.30101 7.83108C2.46638 7.80541 1.68224 7.57581 0.996536 7.19446C0.995407 7.21561 0.995407 7.23705 0.995407 7.25933C0.995407 9.72373 2.74957 11.7811 5.07745 12.2473C4.65012 12.3638 4.20051 12.4264 3.73623 12.4264C3.40847 12.4264 3.08974 12.3937 2.77975 12.3348C3.42737 14.356 5.30592 15.8273 7.53311 15.8688C5.79136 17.2337 3.59746 18.0469 1.21373 18.0469C0.803321 18.0469 0.398276 18.0235 0 17.9764C2.25172 19.4194 4.92542 20.2619 7.79938 20.2619Z" fill="white"/>
</g>
</g>
</g>
<defs>
<clipPath id="clip0_280_409">
<rect width="25" height="21" fill="white" transform="translate(0 0.0400391)"/>
</clipPath>
<clipPath id="clip1_280_409">
<rect width="25" height="21" fill="white" transform="translate(0 0.0400391)"/>
</clipPath>
<clipPath id="clip2_280_409">
<rect width="25" height="21" fill="white" transform="translate(0 0.0400391)"/>
</clipPath>
</defs>
</svg>
