<svg width="180" height="55" viewBox="0 0 180 55" fill="none" xmlns="http://www.w3.org/2000/svg">
<path d="M101.791 24.8274C99.6503 19.1651 92.7049 21.7034 92.0634 24.5345C91.1778 21.5221 84.4068 19.2767 82.3357 24.8343C80.0345 31.0266 91.2615 36.5773 92.0634 37.4908C92.8653 36.7656 104.092 30.922 101.791 24.8343V24.8274Z" fill="#EC184A"/>
<path d="M154.721 20.5L159.003 29.0143L150 37.5356L154.721 20.5Z" fill="#E5D4FF"/>
<path d="M150.719 20.8875L155 29.4018L145.991 37.9231L150.719 20.8875Z" fill="black"/>
<path d="M24.5064 37V21.7273H34.2905V24.0465H27.2731V28.1928H33.6193V30.5121H27.2731V37H24.5064ZM36.8651 37H33.912L39.2888 21.7273H42.7043L48.0885 37H45.1354L41.0562 24.8594H40.9369L36.8651 37ZM36.9621 31.0117H45.0161V33.234H36.9621V31.0117ZM55.2756 37H50.1001V21.7273H55.38C56.8963 21.7273 58.1989 22.033 59.2876 22.6445C60.3814 23.2511 61.2216 24.1236 61.8082 25.2621C62.3949 26.4006 62.6882 27.7628 62.6882 29.3487C62.6882 30.9396 62.3924 32.3068 61.8008 33.4503C61.2141 34.5937 60.3665 35.4712 59.2578 36.0827C58.1541 36.6942 56.8267 37 55.2756 37ZM52.8668 34.6062H55.1413C56.2053 34.6062 57.0927 34.4123 57.8036 34.0245C58.5146 33.6317 59.049 33.0476 59.407 32.272C59.7649 31.4915 59.9439 30.517 59.9439 29.3487C59.9439 28.1804 59.7649 27.2109 59.407 26.4403C59.049 25.6648 58.5195 25.0856 57.8185 24.7028C57.1225 24.315 56.2575 24.1211 55.2234 24.1211H52.8668V34.6062ZM63.4116 21.7273H66.5362L70.2724 28.4837H70.4215L74.1577 21.7273H77.2823L71.7266 31.3026V37H68.9673V31.3026L63.4116 21.7273Z" fill="black"/>
<path d="M106.506 36.5V21.2273H112.234C113.407 21.2273 114.391 21.446 115.187 21.8835C115.987 22.321 116.591 22.9226 116.999 23.6882C117.412 24.4489 117.618 25.3139 117.618 26.2834C117.618 27.2628 117.412 28.1328 116.999 28.8935C116.586 29.6541 115.977 30.2532 115.172 30.6907C114.366 31.1232 113.375 31.3395 112.196 31.3395H108.401V29.065H111.824C112.51 29.065 113.071 28.9457 113.509 28.707C113.946 28.4684 114.27 28.1403 114.478 27.7227C114.692 27.305 114.799 26.8253 114.799 26.2834C114.799 25.7415 114.692 25.2642 114.478 24.8516C114.27 24.4389 113.944 24.1183 113.501 23.8896C113.064 23.6559 112.5 23.5391 111.809 23.5391H109.273V36.5H106.506ZM120.28 36.5H117.327L122.704 21.2273H126.119L131.504 36.5H128.55L124.471 24.3594H124.352L120.28 36.5ZM120.377 30.5117H128.431V32.734H120.377V30.5117ZM130.913 21.2273H134.037L137.773 27.9837H137.922L141.659 21.2273H144.783L139.228 30.8026V36.5H136.468V30.8026L130.913 21.2273Z" fill="#E5D4FF"/>
</svg>
