<svg width="180" height="55" viewBox="0 0 180 55" fill="none" xmlns="http://www.w3.org/2000/svg">
<path d="M101.657 24.4917C99.516 18.8294 92.5706 21.3677 91.9291 24.1988C91.0435 21.1864 84.2725 18.941 82.2014 24.4986C79.9002 30.6909 91.1272 36.2416 91.9291 37.1551C92.731 36.4299 103.958 30.5863 101.657 24.4986V24.4917Z" fill="#FF003C"/>
<path d="M163.565 20.5518L167.847 29.0661L158.844 37.5874L163.565 20.5518Z" fill="#21182F"/>
<path d="M160.56 20.5518L164.841 29.0661L155.832 37.5874L160.56 20.5518Z" fill="#E5D4FF"/>
<path d="M24.3721 36.6641V21.3913H34.1562V23.7106H27.1388V27.8569H33.485V30.1761H27.1388V36.6641H24.3721ZM36.7309 36.6641H33.7777L39.1545 21.3913H42.57L47.9542 36.6641H45.0011L40.9219 24.5234H40.8026L36.7309 36.6641ZM36.8278 30.6758H44.8818V32.8981H36.8278V30.6758ZM55.1413 36.6641H49.9659V21.3913H55.2457C56.762 21.3913 58.0646 21.6971 59.1534 22.3086C60.2471 22.9151 61.0873 23.7876 61.674 24.9261C62.2606 26.0646 62.5539 27.4268 62.5539 29.0128C62.5539 30.6037 62.2581 31.9709 61.6665 33.1143C61.0799 34.2578 60.2322 35.1353 59.1235 35.7468C58.0198 36.3583 56.6924 36.6641 55.1413 36.6641ZM52.7326 34.2702H55.0071C56.071 34.2702 56.9584 34.0763 57.6693 33.6886C58.3803 33.2958 58.9147 32.7116 59.2727 31.9361C59.6306 31.1555 59.8096 30.1811 59.8096 29.0128C59.8096 27.8445 59.6306 26.875 59.2727 26.1044C58.9147 25.3288 58.3853 24.7496 57.6843 24.3668C56.9882 23.979 56.1232 23.7852 55.0891 23.7852H52.7326V34.2702ZM63.2773 21.3913H66.4019L70.1381 28.1477H70.2872L74.0234 21.3913H77.148L71.5923 30.9666V36.6641H68.8331V30.9666L63.2773 21.3913Z" fill="#21182F"/>
<path d="M108.506 37V21.7273H114.234C115.407 21.7273 116.391 21.946 117.187 22.3835C117.987 22.821 118.591 23.4226 118.999 24.1882C119.412 24.9489 119.618 25.8139 119.618 26.7834C119.618 27.7628 119.412 28.6328 118.999 29.3935C118.586 30.1541 117.977 30.7532 117.172 31.1907C116.366 31.6232 115.375 31.8395 114.196 31.8395H110.401V29.565H113.824C114.51 29.565 115.071 29.4457 115.509 29.207C115.946 28.9684 116.27 28.6403 116.478 28.2227C116.692 27.805 116.799 27.3253 116.799 26.7834C116.799 26.2415 116.692 25.7642 116.478 25.3516C116.27 24.9389 115.944 24.6183 115.501 24.3896C115.064 24.1559 114.5 24.0391 113.809 24.0391H111.273V37H108.506ZM122.28 37H119.327L124.704 21.7273H128.119L133.504 37H130.55L126.471 24.8594H126.352L122.28 37ZM122.377 31.0117H130.431V33.234H122.377V31.0117ZM132.913 21.7273H136.037L139.773 28.4837H139.922L143.659 21.7273H146.783L141.228 31.3026V37H138.468V31.3026L132.913 21.7273Z" fill="white"/>
</svg>
