<svg width="126" height="23" viewBox="0 0 126 23" fill="none" xmlns="http://www.w3.org/2000/svg">
<path d="M0.945312 1.02344C1.6875 1.19922 2.35156 1.33594 2.9375 1.43359C3.54297 1.51172 4.05078 1.57031 4.46094 1.60938C4.94922 1.66797 5.37891 1.6875 5.75 1.66797C6.21875 1.64844 6.80469 1.58008 7.50781 1.46289C8.21094 1.3457 8.95312 1.22852 9.73438 1.11133C10.5156 0.994141 11.2871 0.896484 12.0488 0.818359C12.8105 0.740234 13.4746 0.730469 14.041 0.789062C14.6074 0.847656 15.2031 0.984375 15.8281 1.19922C16.4531 1.39453 17.0391 1.66797 17.5859 2.01953C18.1328 2.35156 18.6016 2.76172 18.9922 3.25C19.4023 3.73828 19.6562 4.30469 19.7539 4.94922C19.8516 5.57422 19.793 6.24805 19.5781 6.9707C19.3633 7.67383 19.0215 8.36719 18.5527 9.05078C18.084 9.71484 17.498 10.3301 16.7949 10.8965C16.0918 11.4629 15.3105 11.9219 14.4512 12.2734C13.7676 12.5273 13.0254 12.7227 12.2246 12.8594C11.541 12.9766 10.7402 13.0547 9.82227 13.0938C8.92383 13.1133 7.9668 13.0156 6.95117 12.8008C6.81445 13.3672 6.73633 13.8945 6.7168 14.3828C6.7168 14.8516 6.73633 15.2715 6.77539 15.6426C6.83398 16.0723 6.91211 16.4629 7.00977 16.8145C7.12695 17.166 7.27344 17.5762 7.44922 18.0449C7.60547 18.4355 7.78125 18.9141 7.97656 19.4805C8.19141 20.0273 8.44531 20.6426 8.73828 21.3262C8.38672 21.3262 8.04492 21.3359 7.71289 21.3555C7.38086 21.3555 7.07812 21.3652 6.80469 21.3848C6.49219 21.4043 6.19922 21.4238 5.92578 21.4434C5.61328 21.4629 5.26172 21.502 4.87109 21.5605C4.53906 21.5996 4.11914 21.6582 3.61133 21.7363C3.12305 21.8145 2.56641 21.9121 1.94141 22.0293C2.35156 21.4434 2.67383 20.9062 2.9082 20.418C3.16211 19.9102 3.34766 19.4707 3.46484 19.0996C3.60156 18.6699 3.68945 18.2793 3.72852 17.9277C3.74805 17.6348 3.74805 17.1172 3.72852 16.375C3.72852 15.6328 3.71875 14.7734 3.69922 13.7969C3.67969 12.8203 3.65039 11.7949 3.61133 10.7207C3.57227 9.64648 3.52344 8.64062 3.46484 7.70312C3.40625 6.74609 3.33789 5.92578 3.25977 5.24219C3.20117 4.55859 3.14258 4.10938 3.08398 3.89453C3.00586 3.64062 2.86914 3.36719 2.67383 3.07422C2.51758 2.82031 2.29297 2.52734 2 2.19531C1.72656 1.84375 1.375 1.45312 0.945312 1.02344ZM7.00977 6.79492C6.99023 6.99023 6.98047 7.19531 6.98047 7.41016C6.98047 7.82031 7.00977 8.34766 7.06836 8.99219C7.20508 9.32422 7.37109 9.59766 7.56641 9.8125C7.78125 10.0273 8.00586 10.1934 8.24023 10.3105C8.49414 10.4277 8.74805 10.5059 9.00195 10.5449C9.25586 10.584 9.50977 10.6035 9.76367 10.6035C10.3496 10.584 10.9648 10.4473 11.6094 10.1934C12.4688 9.82227 13.0742 9.29492 13.4258 8.61133C13.7773 7.92773 13.9629 7.22461 13.9824 6.50195C14.002 5.7793 13.875 5.11523 13.6016 4.50977C13.3477 3.9043 13.0352 3.49414 12.6641 3.2793C12.3516 3.14258 11.9512 3.08398 11.4629 3.10352C11.0332 3.12305 10.4961 3.23047 9.85156 3.42578C9.20703 3.62109 8.41602 3.97266 7.47852 4.48047C7.38086 4.83203 7.30273 5.14453 7.24414 5.41797C7.18555 5.69141 7.13672 5.93555 7.09766 6.15039C7.05859 6.38477 7.0293 6.59961 7.00977 6.79492ZM19.6367 7.9668C20.0078 7.98633 20.3398 7.99609 20.6328 7.99609C20.9453 7.97656 21.209 7.95703 21.4238 7.9375C21.6777 7.91797 21.9023 7.89844 22.0977 7.87891C22.3906 7.83984 22.6934 7.79102 23.0059 7.73242C23.2793 7.69336 23.5625 7.64453 23.8555 7.58594C24.168 7.50781 24.4707 7.41992 24.7637 7.32227C24.6465 7.61523 24.5488 7.86914 24.4707 8.08398C24.3926 8.29883 24.334 8.48438 24.2949 8.64062C24.2363 8.81641 24.207 8.96289 24.207 9.08008C24.1875 9.2168 24.1777 9.38281 24.1777 9.57812C24.1582 9.91016 24.1582 10.4473 24.1777 11.1895C25.1934 10.3105 26.043 9.62695 26.7266 9.13867C27.4297 8.65039 27.9863 8.26953 28.3965 7.99609C28.8848 7.68359 29.2656 7.47852 29.5391 7.38086C30.2617 7.26367 30.8965 7.42969 31.4434 7.87891C31.6777 8.07422 31.9023 8.33789 32.1172 8.66992C32.332 8.98242 32.5176 9.40234 32.6738 9.92969C32.8301 10.457 32.9473 11.0918 33.0254 11.834C33.1035 12.5566 33.1133 13.4258 33.0547 14.4414C32.6445 14.4805 32.2734 14.5195 31.9414 14.5586C31.6289 14.5977 31.3652 14.627 31.1504 14.6465C30.8965 14.6855 30.6621 14.7051 30.4473 14.7051L29.6562 14.793C29.3828 14.832 29.041 14.8711 28.6309 14.9102C28.2402 14.9297 27.7617 14.9688 27.1953 15.0273C28.0156 14.3633 28.543 13.7871 28.7773 13.2988C29.0312 12.791 29.1387 12.3711 29.0996 12.0391C29.0605 11.668 28.8848 11.3457 28.5723 11.0723C28.2012 10.8574 27.8008 10.7793 27.3711 10.8379C27 10.877 26.5703 11.043 26.082 11.3359C25.5938 11.6289 25.0762 12.1758 24.5293 12.9766C24.5684 14.2266 24.6074 15.2617 24.6465 16.082C24.7051 16.9023 24.7539 17.5664 24.793 18.0742C24.8516 18.6602 24.9004 19.1191 24.9395 19.4512C24.998 19.7441 25.1152 20.0566 25.291 20.3887C25.4277 20.6621 25.623 20.9648 25.877 21.2969C26.1309 21.6289 26.4629 21.9609 26.873 22.293C26.0137 22.2539 25.3105 22.2539 24.7637 22.293C24.4316 22.3125 24.1387 22.332 23.8848 22.3516C23.6113 22.3906 23.3184 22.4297 23.0059 22.4688C22.7324 22.5078 22.4102 22.5469 22.0391 22.5859C21.6875 22.6445 21.2969 22.7031 20.8672 22.7617C21.0234 22.5469 21.1504 22.293 21.248 22C21.3457 21.7266 21.4238 21.4629 21.4824 21.209C21.5605 20.916 21.6191 20.6133 21.6582 20.3008C21.6777 20.0273 21.6875 19.6172 21.6875 19.0703C21.707 18.5234 21.6973 17.9082 21.6582 17.2246C21.6387 16.5215 21.6094 15.7988 21.5703 15.0566C21.5312 14.2949 21.4824 13.582 21.4238 12.918C21.3652 12.2539 21.2969 11.6777 21.2188 11.1895C21.1602 10.6816 21.0918 10.3301 21.0137 10.1348C20.916 9.90039 20.7988 9.66602 20.6621 9.43164C20.5449 9.2168 20.3984 8.99219 20.2227 8.75781C20.0469 8.50391 19.8516 8.24023 19.6367 7.9668ZM34.2852 8.9043L39.6758 8.96289C39.3633 10.1543 39.1289 11.1699 38.9727 12.0098C38.8359 12.8496 38.748 13.5527 38.709 14.1191C38.6309 14.7637 38.6113 15.3105 38.6504 15.7598C38.709 16.1699 38.8066 16.6094 38.9434 17.0781C39.0605 17.4688 39.2363 17.918 39.4707 18.4258C39.7051 18.9336 40.0176 19.4414 40.4082 19.9492C40.1738 19.8711 39.9199 19.8125 39.6465 19.7734C39.373 19.7344 39.1191 19.7051 38.8848 19.6855C38.6113 19.666 38.3379 19.666 38.0645 19.6855C37.791 19.7051 37.4883 19.7344 37.1562 19.7734C36.8828 19.8125 36.5508 19.8613 36.1602 19.9199C35.7695 19.9785 35.3594 20.0566 34.9297 20.1543C35.2227 19.2754 35.4473 18.5137 35.6035 17.8691C35.7793 17.2246 35.9062 16.6875 35.9844 16.2578C36.0625 15.75 36.1113 15.3398 36.1309 15.0273C36.1309 14.6367 36.1309 14.1973 36.1309 13.709C36.1309 13.2012 36.1309 12.7129 36.1309 12.2441C36.1309 11.7754 36.1211 11.3652 36.1016 11.0137C36.082 10.6426 36.043 10.4082 35.9844 10.3105L35.6914 10.0176C35.5742 9.91992 35.3984 9.7832 35.1641 9.60742C34.9492 9.41211 34.6562 9.17773 34.2852 8.9043ZM36.3652 4.39258C36.7754 4.17773 37.1855 4.11914 37.5957 4.2168C38.0254 4.31445 38.3574 4.5 38.5918 4.77344C38.8262 5.04688 38.9043 5.36914 38.8262 5.74023C38.7676 6.11133 38.4551 6.47266 37.8887 6.82422C37.3223 7.15625 36.8242 7.27344 36.3945 7.17578C35.9648 7.07812 35.6621 6.87305 35.4863 6.56055C35.3105 6.24805 35.2812 5.88672 35.3984 5.47656C35.5156 5.04688 35.8379 4.68555 36.3652 4.39258ZM42.3711 18.7773C42.5078 18.1328 42.6055 17.5664 42.6641 17.0781C42.7422 16.5703 42.8008 16.1504 42.8398 15.8184C42.8789 15.4277 42.8984 15.0957 42.8984 14.8223C42.8789 14.4902 42.8594 14.0996 42.8398 13.6504C42.8398 13.1816 42.8203 12.7227 42.7812 12.2734C42.7617 11.8047 42.7324 11.3945 42.6934 11.043C42.6543 10.6719 42.6055 10.4082 42.5469 10.252C42.4688 10.0957 42.3613 9.92969 42.2246 9.75391C41.9512 9.42188 41.5508 9.09961 41.0234 8.78711C41.4727 8.68945 41.8535 8.61133 42.166 8.55273C42.498 8.47461 42.7715 8.40625 42.9863 8.34766C43.2207 8.26953 43.4258 8.20117 43.6016 8.14258C43.7578 8.08398 43.9434 8.02539 44.1582 7.9668C44.334 7.92773 44.5488 7.87891 44.8027 7.82031C45.0566 7.76172 45.3496 7.69336 45.6816 7.61523L45.5938 10.2812C46.2188 9.53906 46.8535 8.98242 47.498 8.61133C48.1426 8.24023 48.748 7.97656 49.3145 7.82031C49.959 7.625 50.5938 7.52734 51.2188 7.52734C52 7.56641 52.7227 7.69336 53.3867 7.9082C54.0703 8.12305 54.6562 8.37695 55.1445 8.66992C55.6523 8.94336 56.0625 9.23633 56.375 9.54883C56.6875 9.86133 56.873 10.1348 56.9316 10.3691C57.166 11.1309 57.2246 11.834 57.1074 12.4785C56.9902 13.1035 56.834 13.7188 56.6387 14.3242C56.4629 14.9102 56.3066 15.4961 56.1699 16.082C56.0527 16.668 56.1016 17.3027 56.3164 17.9863C56.3945 18.1621 56.4727 18.3379 56.5508 18.5137C56.6289 18.6699 56.7266 18.8262 56.8438 18.9824C56.9609 19.1387 57.0977 19.2656 57.2539 19.3633C57.0391 19.3438 56.8242 19.334 56.6094 19.334C56.3945 19.3145 56.1992 19.2949 56.0234 19.2754C55.8086 19.2559 55.6133 19.2363 55.4375 19.2168C55.2422 19.1973 54.9785 19.1875 54.6465 19.1875C54.0801 19.1875 53.2012 19.2168 52.0098 19.2754C52.1855 18.8652 52.3223 18.5234 52.4199 18.25C52.5371 17.957 52.6348 17.7227 52.7129 17.5469C52.791 17.332 52.8496 17.166 52.8887 17.0488C53.123 16.4824 53.2598 15.8379 53.2988 15.1152C53.3574 14.3926 53.3086 13.6602 53.1523 12.918C53.0938 12.6641 52.9961 12.3613 52.8594 12.0098C52.7227 11.6582 52.5371 11.3164 52.3027 10.9844C52.0879 10.6523 51.8242 10.3691 51.5117 10.1348C51.2188 9.90039 50.877 9.76367 50.4863 9.72461C50.0957 9.68555 49.6562 9.7832 49.168 10.0176C48.6992 10.252 48.1914 10.6816 47.6445 11.3066C47.2344 11.834 46.9121 12.4785 46.6777 13.2402C46.4629 13.8848 46.3164 14.6953 46.2383 15.6719C46.1602 16.6289 46.2773 17.752 46.5898 19.041C46.3164 19.002 46.0625 18.9824 45.8281 18.9824C45.5938 18.9629 45.3984 18.9434 45.2422 18.9238C45.0469 18.9043 44.8711 18.8848 44.7148 18.8652C44.5391 18.8652 44.3438 18.8555 44.1289 18.8359C43.9336 18.8359 43.6895 18.8359 43.3965 18.8359C43.1035 18.8164 42.7617 18.7969 42.3711 18.7773ZM58.6895 3.54297C59.2754 3.60156 59.7637 3.65039 60.1543 3.68945C60.5645 3.72852 60.8965 3.75781 61.1504 3.77734C61.4434 3.79688 61.6777 3.80664 61.8535 3.80664C62.0293 3.82617 62.2637 3.82617 62.5566 3.80664C62.8105 3.78711 63.1426 3.76758 63.5527 3.74805C63.9629 3.70898 64.4805 3.65039 65.1055 3.57227C64.9688 3.76758 64.8613 3.94336 64.7832 4.09961C64.7051 4.23633 64.6367 4.36328 64.5781 4.48047L64.4023 4.83203C64.3633 4.94922 64.3242 5.06641 64.2852 5.18359C64.2461 5.28125 64.207 5.39844 64.168 5.53516C64.1484 5.67188 64.1289 5.81836 64.1094 5.97461H68.6211L68.2109 8.34766L64.0801 8.11328C63.9824 9.10938 63.9141 9.88086 63.875 10.4277C63.8359 10.9746 63.7969 11.375 63.7578 11.6289L63.6992 12.1562C63.6406 12.8984 63.582 13.709 63.5234 14.5879C63.4648 15.4473 63.4453 16.248 63.4648 16.9902C63.4844 17.7324 63.5527 18.3574 63.6699 18.8652C63.7871 19.3535 63.9922 19.5977 64.2852 19.5977C64.5781 19.5977 64.8516 19.5195 65.1055 19.3633C65.3594 19.207 65.5742 19.0215 65.75 18.8066C65.9453 18.5918 66.0918 18.377 66.1895 18.1621C66.2871 17.9277 66.3359 17.752 66.3359 17.6348C66.3359 17.5176 66.3066 17.3809 66.248 17.2246C66.1504 16.9316 65.9746 16.5605 65.7207 16.1113C66.2871 16.248 66.7852 16.3848 67.2148 16.5215C67.4297 16.5996 67.625 16.6777 67.8008 16.7559C67.9961 16.834 68.2207 16.9219 68.4746 17.0195C68.6895 17.1172 68.9629 17.2344 69.2949 17.3711C69.627 17.5078 70.0176 17.6738 70.4668 17.8691C70.0371 17.9473 69.7246 18.0742 69.5293 18.25C69.4121 18.3281 69.3242 18.416 69.2656 18.5137C69.1289 18.7285 68.9727 19.0215 68.7969 19.3926C68.6211 19.7441 68.3574 20.0957 68.0059 20.4473C67.6543 20.7988 67.1758 21.1113 66.5703 21.3848C65.9844 21.6582 65.1934 21.8145 64.1973 21.8535C63.1621 21.8926 62.3711 21.7168 61.8242 21.3262C61.2969 20.9355 60.9062 20.4863 60.6523 19.9785C60.418 19.4512 60.2812 18.9336 60.2422 18.4258C60.2031 17.918 60.1738 17.5762 60.1543 17.4004C60.1348 17.2246 60.1348 16.7852 60.1543 16.082C60.1738 15.3789 60.2031 14.6074 60.2422 13.7676C60.2812 12.9082 60.3203 12.0879 60.3594 11.3066C60.3984 10.5059 60.418 9.91992 60.418 9.54883C60.418 9.35352 60.4277 9.14844 60.4473 8.93359C60.4473 8.75781 60.4473 8.57227 60.4473 8.37695C60.4668 8.16211 60.4766 7.95703 60.4766 7.76172L56.2285 7.73242L56.0527 6.0625L60.3301 6.17969C60.291 5.96484 60.2422 5.76953 60.1836 5.59375C60.1445 5.39844 60.1055 5.24219 60.0664 5.125C60.0078 4.98828 59.9492 4.87109 59.8906 4.77344C59.8125 4.67578 59.7246 4.56836 59.627 4.45117C59.5293 4.35352 59.4023 4.22656 59.2461 4.07031C59.0898 3.91406 58.9043 3.73828 58.6895 3.54297ZM68.9727 7.9668C69.3438 7.98633 69.6758 7.99609 69.9688 7.99609C70.2812 7.97656 70.5449 7.95703 70.7598 7.9375C71.0137 7.91797 71.2383 7.89844 71.4336 7.87891C71.7266 7.83984 72.0293 7.79102 72.3418 7.73242C72.6152 7.69336 72.8984 7.64453 73.1914 7.58594C73.5039 7.50781 73.8066 7.41992 74.0996 7.32227C73.9824 7.61523 73.8848 7.86914 73.8066 8.08398C73.7285 8.29883 73.6699 8.48438 73.6309 8.64062C73.5723 8.81641 73.543 8.96289 73.543 9.08008C73.5234 9.2168 73.5137 9.38281 73.5137 9.57812C73.4941 9.91016 73.4941 10.4473 73.5137 11.1895C74.5293 10.3105 75.3789 9.62695 76.0625 9.13867C76.7656 8.65039 77.3223 8.26953 77.7324 7.99609C78.2207 7.68359 78.6016 7.47852 78.875 7.38086C79.5977 7.26367 80.2324 7.42969 80.7793 7.87891C81.0137 8.07422 81.2383 8.33789 81.4531 8.66992C81.668 8.98242 81.8535 9.40234 82.0098 9.92969C82.166 10.457 82.2832 11.0918 82.3613 11.834C82.4395 12.5566 82.4492 13.4258 82.3906 14.4414C81.9805 14.4805 81.6094 14.5195 81.2773 14.5586C80.9648 14.5977 80.7012 14.627 80.4863 14.6465C80.2324 14.6855 79.998 14.7051 79.7832 14.7051L78.9922 14.793C78.7188 14.832 78.377 14.8711 77.9668 14.9102C77.5762 14.9297 77.0977 14.9688 76.5312 15.0273C77.3516 14.3633 77.8789 13.7871 78.1133 13.2988C78.3672 12.791 78.4746 12.3711 78.4355 12.0391C78.3965 11.668 78.2207 11.3457 77.9082 11.0723C77.5371 10.8574 77.1367 10.7793 76.707 10.8379C76.3359 10.877 75.9062 11.043 75.418 11.3359C74.9297 11.6289 74.4121 12.1758 73.8652 12.9766C73.9043 14.2266 73.9434 15.2617 73.9824 16.082C74.041 16.9023 74.0898 17.5664 74.1289 18.0742C74.1875 18.6602 74.2363 19.1191 74.2754 19.4512C74.334 19.7441 74.4512 20.0566 74.627 20.3887C74.7637 20.6621 74.959 20.9648 75.2129 21.2969C75.4668 21.6289 75.7988 21.9609 76.209 22.293C75.3496 22.2539 74.6465 22.2539 74.0996 22.293C73.7676 22.3125 73.4746 22.332 73.2207 22.3516C72.9473 22.3906 72.6543 22.4297 72.3418 22.4688C72.0684 22.5078 71.7461 22.5469 71.375 22.5859C71.0234 22.6445 70.6328 22.7031 70.2031 22.7617C70.3594 22.5469 70.4863 22.293 70.584 22C70.6816 21.7266 70.7598 21.4629 70.8184 21.209C70.8965 20.916 70.9551 20.6133 70.9941 20.3008C71.0137 20.0273 71.0234 19.6172 71.0234 19.0703C71.043 18.5234 71.0332 17.9082 70.9941 17.2246C70.9746 16.5215 70.9453 15.7988 70.9062 15.0566C70.8672 14.2949 70.8184 13.582 70.7598 12.918C70.7012 12.2539 70.6328 11.6777 70.5547 11.1895C70.4961 10.6816 70.4277 10.3301 70.3496 10.1348C70.252 9.90039 70.1348 9.66602 69.998 9.43164C69.8809 9.2168 69.7344 8.99219 69.5586 8.75781C69.3828 8.50391 69.1875 8.24023 68.9727 7.9668ZM91.2383 17.2832C91.7852 17.2832 92.293 17.2246 92.7617 17.1074C93.1523 17.0098 93.5234 16.8535 93.875 16.6387C94.2461 16.4043 94.4902 16.0625 94.6074 15.6133C94.998 15.6914 95.3301 15.7598 95.6035 15.8184C95.877 15.8574 96.1113 15.8965 96.3066 15.9355C96.5215 15.9941 96.707 16.0332 96.8633 16.0527C97.0195 16.0918 97.2051 16.1309 97.4199 16.1699C97.6152 16.209 97.8496 16.2578 98.123 16.3164C98.416 16.3555 98.7578 16.4141 99.1484 16.4922C98.8555 16.4531 98.5527 16.4824 98.2402 16.5801C97.9473 16.6777 97.6641 16.7852 97.3906 16.9023C97.0781 17.0391 96.7852 17.2051 96.5117 17.4004C96.3359 17.5176 96.1309 17.6934 95.8965 17.9277C95.6816 18.1621 95.3691 18.3867 94.959 18.6016C94.5488 18.8164 94.002 19.002 93.3184 19.1582C92.6543 19.2949 91.7949 19.3438 90.7402 19.3047C89.4707 19.2656 88.4062 19.041 87.5469 18.6309C86.6875 18.2012 85.9941 17.6836 85.4668 17.0781C84.9395 16.4531 84.5586 15.7793 84.3242 15.0566C84.0898 14.334 83.9629 13.6602 83.9434 13.0352C83.9238 12.4102 84.1094 11.7559 84.5 11.0723C84.8906 10.3887 85.4375 9.76367 86.1406 9.19727C86.8633 8.63086 87.7324 8.17188 88.748 7.82031C89.7637 7.44922 90.877 7.26367 92.0879 7.26367C92.791 7.26367 93.4355 7.35156 94.0215 7.52734C94.627 7.68359 95.1738 7.89844 95.6621 8.17188C96.1699 8.44531 96.6094 8.75781 96.9805 9.10938C97.3516 9.44141 97.6641 9.7832 97.918 10.1348C98.1719 10.5059 98.3867 10.8965 98.5625 11.3066C98.7188 11.6582 98.8457 12.0586 98.9434 12.5078C99.041 12.957 99.0703 13.416 99.0312 13.8848C97.5469 13.9238 96.3457 13.9531 95.4277 13.9727C94.5293 13.9922 93.8262 14.002 93.3184 14.002H92H91.0039C90.6523 14.002 90.1934 14.0117 89.627 14.0312C89.0605 14.0508 88.3672 14.0801 87.5469 14.1191C87.6445 14.9004 87.8887 15.5059 88.2793 15.9355C88.6895 16.3457 89.1191 16.6582 89.5684 16.873C90.0762 17.1074 90.6328 17.2441 91.2383 17.2832ZM88.6016 12.0098C89.2266 12.0488 89.7441 12.0781 90.1543 12.0977C90.584 12.1172 90.9355 12.1367 91.209 12.1562C91.502 12.1758 91.7363 12.1855 91.9121 12.1855H92.6445C93.1328 12.1855 94.041 12.1562 95.3691 12.0977C95.3105 11.2383 95.125 10.584 94.8125 10.1348C94.5195 9.68555 94.207 9.35352 93.875 9.13867C93.4844 8.9043 93.0547 8.76758 92.5859 8.72852C91.3164 8.74805 90.3691 9.01172 89.7441 9.51953C89.1387 10.0273 88.7578 10.8574 88.6016 12.0098ZM113.123 5.27148C112.947 5.70117 112.791 6.0918 112.654 6.44336C112.537 6.79492 112.43 7.10742 112.332 7.38086C112.234 7.69336 112.146 7.9668 112.068 8.20117C111.99 8.47461 111.902 8.78711 111.805 9.13867C111.707 9.45117 111.58 9.8418 111.424 10.3105C111.287 10.7598 111.121 11.2969 110.926 11.9219C110.77 10.9844 110.486 10.2422 110.076 9.69531C109.666 9.12891 109.246 8.68945 108.816 8.37695C108.309 8.02539 107.762 7.77148 107.176 7.61523C106.121 7.43945 105.359 7.45898 104.891 7.67383C104.422 7.88867 104.109 8.16211 103.953 8.49414C103.875 8.63086 103.787 8.80664 103.689 9.02148C103.611 9.2168 103.543 9.42188 103.484 9.63672C103.445 9.85156 103.436 10.0664 103.455 10.2812C103.475 10.4961 103.562 10.6719 103.719 10.8086C103.816 10.9062 104.07 11.043 104.48 11.2188C104.891 11.375 105.379 11.5605 105.945 11.7754C106.531 11.9707 107.146 12.1855 107.791 12.4199C108.455 12.6543 109.08 12.8887 109.666 13.123C110.252 13.3574 110.76 13.5918 111.189 13.8262C111.619 14.0605 111.902 14.2754 112.039 14.4707C112.156 14.666 112.283 14.9297 112.42 15.2617C112.576 15.5742 112.684 15.9258 112.742 16.3164C112.82 16.6875 112.84 17.0781 112.801 17.4883C112.781 17.8789 112.674 18.2695 112.479 18.6602C112.283 19.0508 111.971 19.4121 111.541 19.7441C111.131 20.0762 110.574 20.3496 109.871 20.5645C109.051 20.8184 108.26 20.8867 107.498 20.7695C106.736 20.6523 106.033 20.4766 105.389 20.2422C104.764 20.0078 104.217 19.7832 103.748 19.5684C103.279 19.334 102.947 19.2363 102.752 19.2754C102.537 19.3145 102.293 19.4219 102.02 19.5977C101.746 19.7734 101.482 19.959 101.229 20.1543C100.994 20.3301 100.789 20.4961 100.613 20.6523C100.438 20.7891 100.35 20.8379 100.35 20.7988C100.35 20.7598 100.379 20.6426 100.438 20.4473C100.516 20.252 100.594 20.0176 100.672 19.7441C100.77 19.4512 100.857 19.1387 100.936 18.8066C101.033 18.4551 101.102 18.123 101.141 17.8105C101.18 17.5566 101.229 17.2441 101.287 16.873C101.326 16.541 101.375 16.1406 101.434 15.6719C101.512 15.1836 101.6 14.5977 101.697 13.9141C101.795 14.4219 101.932 14.8613 102.107 15.2324C102.303 15.6035 102.488 15.9258 102.664 16.1992C102.879 16.5117 103.084 16.7754 103.279 16.9902C103.572 17.2637 103.914 17.5176 104.305 17.752C104.715 17.9863 105.125 18.1914 105.535 18.3672C105.945 18.5234 106.336 18.6211 106.707 18.6602C107.078 18.6992 107.391 18.6602 107.645 18.543C107.898 18.4258 108.113 18.2109 108.289 17.8984C108.484 17.5859 108.621 17.2441 108.699 16.873C108.777 16.502 108.807 16.1504 108.787 15.8184C108.768 15.4668 108.68 15.1836 108.523 14.9688C108.406 14.832 108.133 14.6562 107.703 14.4414C107.293 14.2266 106.795 13.9922 106.209 13.7383C105.643 13.4844 105.037 13.2207 104.393 12.9473C103.768 12.6738 103.172 12.4004 102.605 12.127C102.059 11.834 101.6 11.5605 101.229 11.3066C100.877 11.0332 100.682 10.7891 100.643 10.5742C100.604 10.2617 100.574 9.91992 100.555 9.54883C100.535 9.1582 100.555 8.77734 100.613 8.40625C100.691 8.01562 100.828 7.64453 101.023 7.29297C101.238 6.94141 101.551 6.64844 101.961 6.41406C102.234 6.25781 102.596 6.14062 103.045 6.0625C103.494 5.98438 103.992 5.94531 104.539 5.94531C105.086 5.92578 105.652 5.94531 106.238 6.00391C106.824 6.04297 107.381 6.10156 107.908 6.17969C108.455 6.23828 108.943 6.31641 109.373 6.41406C109.822 6.51172 110.164 6.59961 110.398 6.67773C110.672 6.77539 110.965 6.78516 111.277 6.70703C111.551 6.64844 111.844 6.52148 112.156 6.32617C112.469 6.13086 112.791 5.7793 113.123 5.27148ZM113.826 3.54297C114.412 3.60156 114.9 3.65039 115.291 3.68945C115.701 3.72852 116.033 3.75781 116.287 3.77734C116.58 3.79688 116.814 3.80664 116.99 3.80664C117.166 3.82617 117.4 3.82617 117.693 3.80664C117.947 3.78711 118.279 3.76758 118.689 3.74805C119.1 3.70898 119.617 3.65039 120.242 3.57227C120.105 3.76758 119.998 3.94336 119.92 4.09961C119.842 4.23633 119.773 4.36328 119.715 4.48047L119.539 4.83203C119.5 4.94922 119.461 5.06641 119.422 5.18359C119.383 5.28125 119.344 5.39844 119.305 5.53516C119.285 5.67188 119.266 5.81836 119.246 5.97461H123.758L123.348 8.34766L119.217 8.11328C119.119 9.10938 119.051 9.88086 119.012 10.4277C118.973 10.9746 118.934 11.375 118.895 11.6289L118.836 12.1562C118.777 12.8984 118.719 13.709 118.66 14.5879C118.602 15.4473 118.582 16.248 118.602 16.9902C118.621 17.7324 118.689 18.3574 118.807 18.8652C118.924 19.3535 119.129 19.5977 119.422 19.5977C119.715 19.5977 119.988 19.5195 120.242 19.3633C120.496 19.207 120.711 19.0215 120.887 18.8066C121.082 18.5918 121.229 18.377 121.326 18.1621C121.424 17.9277 121.473 17.752 121.473 17.6348C121.473 17.5176 121.443 17.3809 121.385 17.2246C121.287 16.9316 121.111 16.5605 120.857 16.1113C121.424 16.248 121.922 16.3848 122.352 16.5215C122.566 16.5996 122.762 16.6777 122.938 16.7559C123.133 16.834 123.357 16.9219 123.611 17.0195C123.826 17.1172 124.1 17.2344 124.432 17.3711C124.764 17.5078 125.154 17.6738 125.604 17.8691C125.174 17.9473 124.861 18.0742 124.666 18.25C124.549 18.3281 124.461 18.416 124.402 18.5137C124.266 18.7285 124.109 19.0215 123.934 19.3926C123.758 19.7441 123.494 20.0957 123.143 20.4473C122.791 20.7988 122.312 21.1113 121.707 21.3848C121.121 21.6582 120.33 21.8145 119.334 21.8535C118.299 21.8926 117.508 21.7168 116.961 21.3262C116.434 20.9355 116.043 20.4863 115.789 19.9785C115.555 19.4512 115.418 18.9336 115.379 18.4258C115.34 17.918 115.311 17.5762 115.291 17.4004C115.271 17.2246 115.271 16.7852 115.291 16.082C115.311 15.3789 115.34 14.6074 115.379 13.7676C115.418 12.9082 115.457 12.0879 115.496 11.3066C115.535 10.5059 115.555 9.91992 115.555 9.54883C115.555 9.35352 115.564 9.14844 115.584 8.93359C115.584 8.75781 115.584 8.57227 115.584 8.37695C115.604 8.16211 115.613 7.95703 115.613 7.76172L111.365 7.73242L111.189 6.0625L115.467 6.17969C115.428 5.96484 115.379 5.76953 115.32 5.59375C115.281 5.39844 115.242 5.24219 115.203 5.125C115.145 4.98828 115.086 4.87109 115.027 4.77344C114.949 4.67578 114.861 4.56836 114.764 4.45117C114.666 4.35352 114.539 4.22656 114.383 4.07031C114.227 3.91406 114.041 3.73828 113.826 3.54297Z" fill="white"/>
</svg>
