<svg width="36" height="36" viewBox="0 0 36 36" fill="none" xmlns="http://www.w3.org/2000/svg">
<path d="M9.75 9.75H9.765M26.25 9.75H26.265M9.75 26.25H9.765M19.5 19.5H19.515M26.25 26.25H26.265M25.5 31.5H31.5V25.5M21 24.75V31.5M31.5 21H24.75M23.4 15H29.1C29.9401 15 30.3601 15 30.681 14.8365C30.9632 14.6927 31.1927 14.4632 31.3365 14.181C31.5 13.8601 31.5 13.4401 31.5 12.6V6.9C31.5 6.05992 31.5 5.63988 31.3365 5.31901C31.1927 5.03677 30.9632 4.8073 30.681 4.66349C30.3601 4.5 29.9401 4.5 29.1 4.5H23.4C22.5599 4.5 22.1399 4.5 21.819 4.66349C21.5368 4.8073 21.3073 5.03677 21.1635 5.31901C21 5.63988 21 6.05992 21 6.9V12.6C21 13.4401 21 13.8601 21.1635 14.181C21.3073 14.4632 21.5368 14.6927 21.819 14.8365C22.1399 15 22.5599 15 23.4 15ZM6.9 15H12.6C13.4401 15 13.8601 15 14.181 14.8365C14.4632 14.6927 14.6927 14.4632 14.8365 14.181C15 13.8601 15 13.4401 15 12.6V6.9C15 6.05992 15 5.63988 14.8365 5.31901C14.6927 5.03677 14.4632 4.8073 14.181 4.66349C13.8601 4.5 13.4401 4.5 12.6 4.5H6.9C6.05992 4.5 5.63988 4.5 5.31901 4.66349C5.03677 4.8073 4.8073 5.03677 4.66349 5.31901C4.5 5.63988 4.5 6.05992 4.5 6.9V12.6C4.5 13.4401 4.5 13.8601 4.66349 14.181C4.8073 14.4632 5.03677 14.6927 5.31901 14.8365C5.63988 15 6.05992 15 6.9 15ZM6.9 31.5H12.6C13.4401 31.5 13.8601 31.5 14.181 31.3365C14.4632 31.1927 14.6927 30.9632 14.8365 30.681C15 30.3601 15 29.9401 15 29.1V23.4C15 22.5599 15 22.1399 14.8365 21.819C14.6927 21.5368 14.4632 21.3073 14.181 21.1635C13.8601 21 13.4401 21 12.6 21H6.9C6.05992 21 5.63988 21 5.31901 21.1635C5.03677 21.3073 4.8073 21.5368 4.66349 21.819C4.5 22.1399 4.5 22.5599 4.5 23.4V29.1C4.5 29.9401 4.5 30.3601 4.66349 30.681C4.8073 30.9632 5.03677 31.1927 5.31901 31.3365C5.63988 31.5 6.05992 31.5 6.9 31.5Z" stroke="white" stroke-width="3" stroke-linecap="round" stroke-linejoin="round"/>
</svg>
