<svg width="37" height="38" viewBox="0 0 37 38" fill="none" xmlns="http://www.w3.org/2000/svg">
<path d="M8.19595 30.7775C9.13379 28.5083 11.3234 26.9167 13.875 26.9167H23.125C25.6766 26.9167 27.8662 28.5083 28.804 30.7775M24.6667 15.0417C24.6667 18.5395 21.9058 21.375 18.5 21.375C15.0942 21.375 12.3333 18.5395 12.3333 15.0417C12.3333 11.5439 15.0942 8.70835 18.5 8.70835C21.9058 8.70835 24.6667 11.5439 24.6667 15.0417ZM33.9167 19C33.9167 27.7445 27.0144 34.8334 18.5 34.8334C9.98561 34.8334 3.08333 27.7445 3.08333 19C3.08333 10.2555 9.98561 3.16669 18.5 3.16669C27.0144 3.16669 33.9167 10.2555 33.9167 19Z" stroke="white" stroke-width="3" stroke-linecap="round" stroke-linejoin="round"/>
</svg>
