<svg width="42" height="36" viewBox="0 0 42 36" fill="none" xmlns="http://www.w3.org/2000/svg">
<path d="M28.875 21H28.8925M5.25 7.5V28.5C5.25 30.1569 6.817 31.5 8.75 31.5H33.25C35.183 31.5 36.75 30.1569 36.75 28.5V13.5C36.75 11.8431 35.183 10.5 33.25 10.5L8.75 10.5C6.817 10.5 5.25 9.15685 5.25 7.5ZM5.25 7.5C5.25 5.84315 6.817 4.5 8.75 4.5H29.75M29.75 21C29.75 21.4142 29.3582 21.75 28.875 21.75C28.3918 21.75 28 21.4142 28 21C28 20.5858 28.3918 20.25 28.875 20.25C29.3582 20.25 29.75 20.5858 29.75 21Z" stroke="white" stroke-width="3" stroke-linecap="round" stroke-linejoin="round"/>
</svg>
